<?xml version="1.0" encoding="UTF-8"?><svg id="FINAL" xmlns="http://www.w3.org/2000/svg" viewBox="0 0 682 559"><g><path d="M272.64,246.15c-17.98,0-32.59-14.62-32.59-32.61,0-8.69,3.39-16.89,9.55-23.05,6.16-6.16,14.34-9.55,23.05-9.55h16.58v-44.44h-49.18v-36.55h-49.31v113.28c0,45.33,36.89,82.22,82.22,82.22h27.49v-49.31h-27.81Z"/><path d="M453.67,155.58c-15.48-15.48-36.05-23.99-57.91-23.99h-4.2c-9.24,0-18.32,1.54-26.94,4.57l-.21,.06c-23.06,8.1-41.72,26.79-49.82,49.95-3.03,8.64-4.57,17.72-4.57,26.95v131.56h49.31V213.49c0-8.69,3.39-16.89,9.55-23.05,6.16-6.16,14.34-9.55,23.06-9.55h3.83c17.98,0,32.59,14.62,32.59,32.59,0,8.7-3.39,16.89-9.55,23.06-3.08,3.08-6.68,5.46-10.57,7.08-3.92,1.62-8.14,2.46-12.48,2.46h-26.86v49.31h26.86c45.16,0,81.9-36.76,81.9-81.92,0-21.86-8.53-42.43-23.99-57.91Z"/></g><g><path d="M153.34,399.77h-23.24v59.53h-6.43v-59.53h-23.24v-5.7h52.92v5.7Z"/><path d="M206.91,453.61v5.7h-43.82v-65.23h43v5.7h-36.57v23.52h31.88v5.42h-31.88v24.9h37.39Z"/><path d="M213.34,426.23c0-3.92,.69-7.82,2.07-11.71,1.38-3.89,3.38-7.36,6.02-10.43,2.63-3.06,5.88-5.56,9.74-7.49,3.86-1.93,8.24-2.89,13.14-2.89,5.82,0,10.79,1.32,14.93,3.95,4.13,2.63,7.18,6.06,9.14,10.29l-5.05,3.12c-1.04-2.14-2.31-3.95-3.81-5.42-1.5-1.47-3.11-2.67-4.82-3.58-1.72-.92-3.49-1.58-5.33-1.98-1.84-.4-3.64-.6-5.42-.6-3.92,0-7.38,.8-10.38,2.39-3,1.59-5.53,3.68-7.58,6.25-2.05,2.57-3.6,5.47-4.64,8.68-1.04,3.22-1.56,6.48-1.56,9.79,0,3.61,.63,7.07,1.88,10.38,1.25,3.31,2.97,6.23,5.14,8.77,2.17,2.54,4.75,4.56,7.72,6.06,2.97,1.5,6.2,2.25,9.69,2.25,1.84,0,3.72-.23,5.65-.69,1.93-.46,3.8-1.19,5.6-2.21,1.81-1.01,3.48-2.27,5.01-3.77,1.53-1.5,2.82-3.32,3.86-5.47l5.33,2.76c-1.04,2.45-2.51,4.61-4.41,6.48-1.9,1.87-4.01,3.45-6.34,4.73-2.33,1.29-4.79,2.27-7.4,2.94-2.6,.67-5.16,1.01-7.67,1.01-4.47,0-8.58-.98-12.31-2.94-3.74-1.96-6.95-4.52-9.65-7.67-2.7-3.15-4.79-6.74-6.29-10.75-1.5-4.01-2.25-8.1-2.25-12.27Z"/><path d="M332.13,394.07v65.23h-6.34v-30.5h-38.68v30.5h-6.43v-65.23h6.43v29.03h38.68v-29.03h6.34Z"/><path d="M347.1,459.3v-65.23h27.65c3,0,5.77,.63,8.31,1.88,2.54,1.26,4.73,2.91,6.57,4.96,1.84,2.05,3.28,4.38,4.32,6.98,1.04,2.6,1.56,5.22,1.56,7.85s-.49,5.44-1.47,8.04c-.98,2.6-2.36,4.92-4.13,6.94-1.78,2.02-3.92,3.65-6.43,4.87-2.51,1.23-5.27,1.84-8.27,1.84h-15.43v21.87h-12.68Zm12.68-32.98h14.7c2.33,0,4.27-.95,5.83-2.85,1.56-1.9,2.34-4.47,2.34-7.72,0-1.65-.25-3.14-.74-4.46-.49-1.32-1.13-2.44-1.93-3.35-.8-.92-1.73-1.61-2.8-2.07-1.07-.46-2.16-.69-3.26-.69h-14.15v21.13Z"/><path d="M404.34,459.3v-65.23h28.85c3,0,5.77,.63,8.31,1.88,2.54,1.26,4.73,2.91,6.57,4.96,1.84,2.05,3.28,4.38,4.32,6.98,1.04,2.6,1.56,5.22,1.56,7.85,0,4.23-1.06,8.07-3.17,11.53-2.11,3.46-4.98,5.96-8.59,7.49l14.88,24.53h-14.24l-13.32-21.87h-12.5v21.87h-12.68Zm12.68-32.98h15.89c1.16,0,2.25-.28,3.26-.83,1.01-.55,1.88-1.3,2.62-2.25,.73-.95,1.32-2.07,1.75-3.35,.43-1.29,.64-2.66,.64-4.13s-.25-2.94-.74-4.23c-.49-1.29-1.15-2.4-1.98-3.35-.83-.95-1.78-1.68-2.85-2.21-1.07-.52-2.16-.78-3.26-.78h-15.34v21.13Z"/><path d="M493.27,459.76c-4.78,0-9.11-.93-13-2.8-3.89-1.87-7.23-4.35-10.01-7.44-2.79-3.09-4.95-6.63-6.48-10.61-1.53-3.98-2.3-8.05-2.3-12.22s.81-8.51,2.44-12.5c1.62-3.98,3.86-7.5,6.71-10.57,2.85-3.06,6.23-5.5,10.15-7.3,3.92-1.81,8.18-2.71,12.77-2.71s9.02,.96,12.91,2.89c3.89,1.93,7.21,4.46,9.97,7.58,2.76,3.12,4.9,6.68,6.43,10.66,1.53,3.98,2.3,8.02,2.3,12.13,0,4.35-.8,8.5-2.39,12.45-1.59,3.95-3.8,7.44-6.61,10.47-2.82,3.03-6.19,5.45-10.11,7.26-3.92,1.81-8.18,2.71-12.77,2.71Zm-18.93-33.07c0,2.82,.43,5.54,1.29,8.18,.86,2.63,2.1,4.96,3.72,6.98,1.62,2.02,3.61,3.64,5.97,4.87,2.36,1.23,5.04,1.84,8.04,1.84s5.77-.63,8.13-1.88c2.36-1.25,4.35-2.92,5.97-5.01,1.62-2.08,2.85-4.42,3.67-7.03,.83-2.6,1.24-5.25,1.24-7.95s-.44-5.54-1.33-8.18c-.89-2.63-2.14-4.96-3.77-6.98-1.62-2.02-3.61-3.63-5.97-4.82-2.36-1.19-5.01-1.79-7.95-1.79s-5.79,.63-8.18,1.88c-2.39,1.26-4.38,2.91-5.97,4.96-1.59,2.05-2.8,4.38-3.63,6.98-.83,2.6-1.24,5.25-1.24,7.95Z"/><path d="M573.75,411.16c-.43-.43-1.21-1.01-2.34-1.75-1.13-.74-2.51-1.45-4.13-2.16-1.62-.7-3.38-1.3-5.28-1.79-1.9-.49-3.83-.74-5.79-.74-3.49,0-6.09,.64-7.81,1.93-1.72,1.29-2.57,3.09-2.57,5.42,0,1.35,.32,2.47,.96,3.35,.64,.89,1.58,1.67,2.8,2.34,1.22,.67,2.77,1.29,4.64,1.84,1.87,.55,4.03,1.13,6.48,1.75,3.18,.86,6.08,1.78,8.68,2.76,2.6,.98,4.81,2.21,6.61,3.67s3.2,3.23,4.18,5.28c.98,2.05,1.47,4.58,1.47,7.58,0,3.49-.66,6.48-1.97,8.96-1.32,2.48-3.09,4.49-5.33,6.02-2.24,1.53-4.81,2.65-7.72,3.35-2.91,.7-5.96,1.06-9.14,1.06-4.9,0-9.74-.74-14.52-2.21-4.78-1.47-9.07-3.55-12.86-6.25l5.6-10.93c.55,.55,1.55,1.27,2.99,2.16,1.44,.89,3.14,1.78,5.1,2.66,1.96,.89,4.13,1.64,6.52,2.25,2.39,.61,4.84,.92,7.35,.92,6.98,0,10.47-2.24,10.47-6.71,0-1.41-.4-2.6-1.19-3.58-.8-.98-1.93-1.84-3.4-2.57-1.47-.74-3.25-1.41-5.33-2.02-2.08-.61-4.41-1.29-6.98-2.02-3.12-.86-5.83-1.79-8.13-2.8s-4.21-2.21-5.74-3.58c-1.53-1.38-2.68-2.97-3.45-4.78-.77-1.81-1.15-3.97-1.15-6.48,0-3.31,.61-6.25,1.84-8.82,1.22-2.57,2.92-4.72,5.1-6.43,2.17-1.71,4.7-3.02,7.58-3.91,2.88-.89,5.97-1.33,9.28-1.33,4.59,0,8.82,.72,12.68,2.16,3.86,1.44,7.23,3.14,10.11,5.1l-5.6,10.29Z"/></g></svg>