<?xml version="1.0" encoding="utf-8"?>
<!-- Svg Vector Icons : http://www.onlinewebfonts.com/icon -->
<!DOCTYPE svg PUBLIC "-//W3C//DTD SVG 1.1//EN" "http://www.w3.org/Graphics/SVG/1.1/DTD/svg11.dtd">
<svg version="1.1" xmlns="http://www.w3.org/2000/svg" xmlns:xlink="http://www.w3.org/1999/xlink" x="0px" y="0px" viewBox="0 0 1000 1000" enable-background="new 0 0 1000 1000" xml:space="preserve">
<metadata> Svg Vector Icons : http://www.onlinewebfonts.com/icon </metadata>
<g><g><path d="M172.1,115.5C172.1,57.2,219.3,10,277.5,10C335.8,10,383,57.2,383,115.5c0,58.3-47.2,105.5-105.5,105.5C219.3,220.9,172.1,173.7,172.1,115.5z M399.9,99.2l307.8-54.3l-24.9,268.5l-114.4-47.9l-5.5,59.2l-51.4-22.9c-33.3,48.8-92.8,71.4-151.7,71.4c-20.8,0-41.5-2.9-60.9-8.3l-39,182.1c-6,27.8-25.5,45.6-48.5,54.8l-0.2,332.4c0,30.8-25,55.8-55.8,55.8c0,0,0,0,0,0c-30.8,0-55.8-25-55.8-55.9l0.2-351.3c-22-18.7-35.6-46-29.1-76.4l48.8-227.6c9.1-42.4,52.1-62.8,88.6-63.8l0.3,0c0,0,12.9,0.1,24,2.2c11.6,2.2,21.8,7.8,21.8,7.8c22.1,10.7,43.5,30.9,52.1,55.9C351,300.5,419,294,444.6,254.7c0.5-0.8,1.2-1.5,1.8-2.2l3.4-36.6l-58.5-24.5L399.9,99.2z M476.9,236.3c8.3-0.4,16.8,1.6,24.3,6.5c11,7.2,17.3,18.8,18.3,31l18.3,8.2l2.6-28.1l-62.7-26.3L476.9,236.3z M718.1,295.6l146.2,94.3l12.1-18.8l-146.2-94.3L718.1,295.6z M910.6,43.3l-5.1-21.7L736.1,61.2l5.1,21.7L910.6,43.3z M739.3,173.7L738,196l191.7,11.2l1.3-22.3L739.3,173.7z"/></g><g></g><g></g><g></g><g></g><g></g><g></g><g></g><g></g><g></g><g></g><g></g><g></g><g></g><g></g><g></g></g>
</svg>