<?xml version="1.0" encoding="UTF-8"?><svg id="a" xmlns="http://www.w3.org/2000/svg" viewBox="0 0 352.66768 42.81677"><g><polygon points="71.46004 40.2247 62.42635 26.55673 53.31453 40.2247 45.36775 40.2247 58.59529 21.06601 45.72664 2.17148 53.6573 2.17148 62.43709 15.49765 71.29646 2.17148 79.13826 2.17148 66.26765 21.06601 79.49617 40.2247 71.46004 40.2247" style="fill:#102b66;"/><path d="M76.30148,3.67125l-11.85263,17.40068,12.18912,17.65311h-4.37115l-9.83495-14.87976-9.92007,14.87976h-4.28586l12.18825-17.65311L48.56329,3.67125h4.28584l9.58273,14.54414,9.6689-14.54414h4.20071m5.67332-3h-11.48209l-.89024,1.33913-7.15941,10.76932-7.08879-10.759-.88911-1.34944h-11.57474l3.1933,4.68874,10.69289,15.70035-11.01941,15.96021-3.24814,4.7045h11.60826l.89059-1.33588,7.41318-11.11948,7.34299,11.10956,.88953,1.34579h11.70146l-3.24841-4.70459-11.02011-15.96005,10.69437-15.70026,3.19389-4.68889h0Z" style="fill:#fff;"/></g><g><polygon points="8.47713 40.2247 8.47713 8.61874 1.50008 8.61874 1.50008 2.17148 21.98592 2.17148 21.98592 8.61874 14.92439 8.61874 14.92439 40.2247 8.47713 40.2247" style="fill:#102b66;"/><path d="M20.48599,3.67125v3.44769h-7.0618v31.60609h-3.44682V7.11894H3V3.67125H20.48599m3-3H0V10.11893H6.97737v31.60611h9.44682V10.11893h7.0618V.67125h0Z" style="fill:#fff;"/></g><g><polygon points="23.94637 40.22372 23.94637 2.17148 45.18611 2.17148 45.18611 8.6207 30.39265 8.6207 30.39265 17.89072 45.18611 17.89072 45.18611 24.33798 30.39265 24.33798 30.39265 33.8624 45.18611 33.8624 45.18611 40.22372 23.94637 40.22372" style="fill:#102b66;"/><path d="M43.68628,3.67125v3.44943h-14.79378v12.27007h14.79378v3.44769h-14.79378v12.52386h14.79378v3.36099H25.44638V3.67125h18.2399m3-3H22.44638V41.7233h24.2399v-9.36099h-14.79378v-6.52386h14.79378v-9.44769h-14.79378v-6.27005h14.79378V.67125h0Z" style="fill:#fff;"/></g><g><polygon points="83.7115 40.2247 83.7115 8.61874 76.65047 8.61874 76.65047 2.17148 97.13387 2.17148 97.13387 8.61874 90.15828 8.61874 90.15828 40.2247 83.7115 40.2247" style="fill:#102b66;"/><path d="M95.63405,3.67125v3.44769h-6.97563v31.60609h-3.44701V7.11894h-7.06075V3.67125h17.48338m3-3h-23.48338V10.11893h7.06075v31.60611h9.44701V10.11893h6.97563V.67125h0Z" style="fill:#fff;"/></g><g><polygon points="200.38142 40.39365 187.75349 20.03329 187.75349 40.39365 176.42976 40.39365 176.42976 2.17148 189.60115 2.17148 200.13533 18.70175 200.13533 2.17148 211.45857 2.17148 211.45857 40.39365 200.38142 40.39365" style="fill:#102b66;"/><path d="M209.95848,3.67125V38.89355h-8.74231l-14.96317-24.12427v24.12427h-8.32312V3.67125h10.84772l12.85773,20.17577V3.67125h8.32315m3-3h-14.32315V13.5574l-7.32779-11.49844-.88437-1.38771h-15.49329V41.89355h14.32312V25.29761l9.41376,15.17725,.87994,1.4187h13.41177V.67125h0Z" style="fill:#fff;"/></g><g><polygon points="223.25154 40.39365 223.25154 11.98007 212.23982 11.98007 212.23982 2.17148 246.34334 2.17148 246.34334 11.98007 235.33064 11.98007 235.33064 40.39365 223.25154 40.39365" style="fill:#102b66;"/><path d="M244.84358,3.67125v6.8087h-11.01291v28.4136h-9.07947V10.47995h-11.01117V3.67125h31.10355m3-3h-37.10355V13.47995h11.01117v28.4136h15.07947V13.47995h11.01291V.67125h0Z" style="fill:#fff;"/></g><g><path d="M270.74178,40.39169l-8.94238-11.94824-.7334-.99609h-1.86133v12.94434h-12.07812V2.17099h16.71191c2.12988,0,3.92578,.16602,5.54883,.34521,1.87109,.31152,3.4668,.9165,4.82422,1.80908,1.58984,.90771,2.83301,2.09717,3.69336,3.53613,.91113,1.5166,1.39258,3.41113,1.39258,5.47705,0,2.97607-.7041,5.36084-2.15137,7.29004-1.01465,1.37402-2.40332,2.62451-4.06836,3.66846l12.58691,16.09473h-14.92285Zm-10.26172-22.24707c.90039,0,1.67871,0,2.34961-.07715l.08496-.00977h.08594c.16016,0,.30273-.01904,.4375-.03467,.1748-.02002,.3418-.03711,.50781-.04443,.69824-.12793,1.26562-.35742,1.60547-.6499l.08008-.06445c.44043-.32861,.72949-.64062,.98047-1.06201,.09863-.25537,.26953-.83203,.26953-1.77051,0-.56299-.09668-1.05225-.29395-1.49072-.28809-.36475-.64941-.61328-1.15723-.79834-.52539-.22217-1.03516-.34521-1.66895-.41309h-.86914l-.10742-.01562c-.48047-.06982-1.09277-.06982-1.80078-.06982h-1.7793v6.50049h1.27539Z" style="fill:#102b66;"/><path d="M263.83876,3.67123c2.10565,0,3.87036,.16852,5.38306,.33545,1.5127,.25397,2.94183,.75806,4.2041,1.59796,1.34241,.75793,2.43768,1.76648,3.19226,3.02698,.75635,1.26062,1.17883,2.85669,1.17883,4.70673,0,2.60626-.58942,4.70837-1.85162,6.38959-1.17706,1.59619-2.94202,3.02533-5.12573,4.11731l11.76752,15.04669h-11.09473l-8.49164-11.34674-1.17554-1.59784h-4.12067v12.94458h-9.0777V3.67123h15.21185m-6.13416,15.97327h2.77509c.92487,0,1.76477,0,2.52112-.08685,.42249,0,.75635-.08179,1.09351-.08179,1.00842-.1687,1.8501-.50586,2.43597-1.01013,.67456-.50433,1.09375-1.00671,1.42914-1.59784,.25403-.58771,.42249-1.42755,.42249-2.43597,0-.84149-.16846-1.59784-.50409-2.27063-.42249-.58783-1.0119-1.09198-1.93341-1.42755-.58942-.25208-1.26239-.42078-2.10565-.50427h-.83795c-.58765-.08514-1.26062-.08514-2.01697-.08514h-3.27924v9.50018m6.13416-18.97327h-18.21185V41.89194h15.0777v-12.4082l8.38599,11.20569,.8999,1.20251h18.75137l-3.79156-4.84814-9.71161-12.41788c1.2309-.93359,2.28561-1.98434,3.12119-3.11749,1.63492-2.17743,2.43713-4.85663,2.43713-8.17007,0-2.3374-.55545-4.49869-1.60632-6.25017-.98663-1.64815-2.39825-3.00842-4.19534-4.04207-1.52332-.99376-3.298-1.6658-5.27682-1.99802l-.0835-.01402-.08414-.00929c-1.66403-.18362-3.50772-.35355-5.71213-.35355h0Zm-3.13416,12.47308h.27924c.62384,0,1.2131,0,1.58676,.05414l.21399,.03101h.89371c.44357,.05215,.79141,.13641,1.08643,.2626l.07574,.03238,.07742,.0282c.18021,.06561,.29361,.13043,.37347,.19522,.06076,.19922,.09055,.42529,.09055,.68405,0,.52551-.06995,.90674-.13153,1.11716-.11368,.16702-.25854,.32111-.51645,.51395l-.08258,.06171-.07812,.06726c-.00214,.00186-.20511,.1716-.8067,.29407-.19333,.01166-.36295,.03116-.4996,.04688-.1105,.01273-.2149,.02472-.26611,.02472h-.17169l-.17056,.01959c-.53378,.06128-1.19418,.06674-1.95395,.06723v-3.50015h0Z" style="fill:#fff;"/></g><g><path d="M300.91267,41.14853c-6.02832,0-10.8584-1.82129-14.35547-5.41211-3.46191-3.55176-5.21777-8.40137-5.21777-14.41211,0-6.06641,1.75586-10.94336,5.21777-14.49609,3.44336-3.53516,8.27344-5.32812,14.35547-5.32812,6.01758,0,10.81543,1.78809,14.34473,5.31396,3.47363,3.56885,5.22754,8.4458,5.22754,14.51025,0,6.00977-1.75391,10.8584-5.21289,14.41113-3.50098,3.5918-8.30469,5.41309-14.27734,5.41309h-.08203Zm.08203-30.00879c-1.05273,0-1.93555,.15527-2.69922,.47412-.79883,.33154-1.55176,.88379-2.24219,1.64209-.64746,.71191-1.14746,1.66162-1.62012,3.07959-.45508,1.44385-.68066,3.0835-.68066,4.98877,0,1.84473,.20508,3.48535,.61133,4.87598,.39355,1.1709,.95703,2.22754,1.65723,3.08594,.64941,.7959,1.37402,1.35156,2.15332,1.65039,1.00879,.38965,1.9043,.57129,2.82031,.57129,.84277,0,1.74805-.19238,2.61719-.55469,.87891-.40723,1.61328-.96094,2.19238-1.66895,.70215-.83203,1.2207-1.81055,1.74414-3.28223,.35547-1.29395,.52148-2.80957,.52148-4.76172,0-1.92969-.22266-3.53418-.67969-4.9043-.36328-1.23682-.91896-2.3125-1.54004-3.00342-.69336-.82764-1.41309-1.37646-2.23535-1.71777-.84082-.32422-1.66016-.4751-2.62012-.4751Z" style="fill:#102b66;"/><path d="M300.99471,3.00003c5.54999,0,9.92096,1.59607,13.2019,4.87524,3.19055,3.27747,4.78839,7.7337,4.78839,13.44885,0,5.63336-1.59784,10.08789-4.78839,13.36536-3.1958,3.27917-7.65192,4.9588-13.2019,4.9588h-.08185c-5.63318,0-10.08783-1.67963-13.28174-4.9588-3.19409-3.27747-4.79187-7.73199-4.79187-13.36536,0-5.71515,1.59778-10.17139,4.79187-13.44885,3.19391-3.27917,7.64856-4.87524,13.28174-4.87524h.08185m0,30.00806c1.09369,0,2.18719-.25031,3.1958-.67102,1.09021-.50427,2.01685-1.17712,2.7749-2.10211,.92151-1.09198,1.51093-2.35419,2.01508-3.78174,.42249-1.5127,.58942-3.19391,.58942-5.21265,0-2.10193-.25208-3.86682-.75635-5.37952-.41901-1.42914-1.09357-2.69135-1.84814-3.53125-.84167-1.00665-1.76648-1.68121-2.7749-2.10034-1.09021-.42078-2.10211-.58948-3.1958-.58948-1.17535,0-2.26904,.1687-3.27747,.58948-1.00842,.41913-1.93341,1.09369-2.77313,2.01697-.8399,.92328-1.42932,2.10034-1.93347,3.61462-.50427,1.59625-.75806,3.36102-.75806,5.46307s.25378,3.86511,.6712,5.29602c.50763,1.51447,1.18042,2.68976,1.935,3.61481,.75635,.92499,1.68317,1.68121,2.77667,2.10211,1.09021,.42072,2.1839,.67102,3.35925,.67102M300.99471,.00003h-.08185c-6.50223,0-11.69388,1.94536-15.43082,5.78206-3.74408,3.84181-5.64279,9.07112-5.64279,15.54204,0,6.41553,1.89871,11.61673,5.6434,15.45917,3.79031,3.89151,8.98199,5.86499,15.43021,5.86499h.08185c6.39297,0,11.55759-1.97327,15.35037-5.86496,3.74277-3.84476,5.63992-9.04556,5.63992-15.4592,0-6.46906-1.89716-11.69797-5.63876-15.54147C312.49767,1.93575,307.34236,.00003,300.99471,.00003h0Zm-5.20737,25.72311c-.35486-1.2421-.53476-2.72171-.53476-4.39902,0-1.75012,.20236-3.24149,.61871-4.55936,.38254-1.14792,.79761-1.95615,1.29196-2.4996,.54019-.59393,1.11389-1.01962,1.70538-1.26547,.58136-.24255,1.27554-.35971,2.12607-.35971,.76373,0,1.38754,.11194,2.07742,.37363,.58069,.24826,1.10168,.65436,1.59174,1.24051l.03424,.04092,.03564,.0397c.47037,.52353,.91931,1.40964,1.20099,2.37036l.01544,.05264,.01733,.05206c.40536,1.21591,.60239,2.66522,.60239,4.43076,0,1.78726-.14417,3.16122-.45319,4.31192-.4527,1.26215-.88708,2.08768-1.44403,2.74768-.45596,.55588-.98584,.95697-1.68973,1.28979-.673,.27368-1.35925,.41812-1.98825,.41812-.7243,0-1.44852-.14929-2.27921-.46985-.53452-.20575-1.04993-.60995-1.53427-1.2023-.57263-.702-1.04214-1.5817-1.39389-2.61279h0Z" style="fill:#fff;"/></g><g><polygon points="322.78084 40.39365 322.78084 2.17148 334.86092 2.17148 334.86092 30.5831 351.16756 30.5831 351.16756 40.39365 322.78084 40.39365" style="fill:#102b66;"/><path d="M333.36046,3.67125v28.41185h16.30719v6.81046h-25.38666V3.67125h9.07947m3-3h-15.07947V41.89355h31.38669v-12.81046h-16.30722V.67125h0Z" style="fill:#fff;"/></g><g><path d="M120.93806,41.06454c-.9585,0-1.94824,0-2.9126-.18262-1.69189-.18457-3.31201-.54785-4.81689-1.08008-.29834-.10352-.59375-.22852-.88867-.35449l-3.91797-1.64941,3.82422-1.24805c7.28369-2.37695,14.23926-4.90527,20.67334-7.51367l2.06348-.83691v9.26562l-.82764,.41504c-.23438,.11816-.46875,.21973-.69629,.31738-.22314,.09668-.43896,.18457-.63135,.2998l-.10254,.06152-.42725,.17676c-.25439,.1084-.51562,.21973-.80322,.30469-.92578,.44629-1.82666,.71484-2.62598,.9541-1.23779,.35449-2.39648,.62207-3.46045,.7998-1.11572,.18457-2.5293,.27051-4.4502,.27051Z" style="fill:#102b66;"/><path d="M133.46294,30.42624v6.11319c-.50433,.25223-1.00684,.41916-1.42844,.67297-.42078,.16864-.75549,.33557-1.09375,.41895-.84055,.42075-1.68036,.67456-2.52112,.92499-1.17709,.33716-2.2688,.58948-3.27893,.75812-1.00867,.16696-2.35355,.25031-4.20255,.25031-.92413,0-1.84827,0-2.68976-.16693-1.59787-.17023-3.10968-.50433-4.53983-1.01016-.34933-.12094-.68088-.27029-1.01697-.41245,7.39801-2.41391,14.3558-4.94769,20.77133-7.54898m3-4.45361l-4.12726,1.67346c-6.40115,2.59546-13.32349,5.11111-20.57468,7.47711l-7.62863,2.48917,7.39059,3.12589,.19092,.08145c.29681,.12717,.63324,.27133,1.01324,.40289,1.57834,.55829,3.29239,.94534,5.07867,1.14474,1.08389,.19742,2.16971,.19742,3.13235,.19742,2.00375,0,3.49481-.09235,4.69247-.29059,1.12125-.18716,2.33618-.4675,3.61508-.8338,.8121-.24173,1.77487-.5285,2.77472-.99866,.31525-.10068,.58981-.21735,.8399-.32358,.09192-.03906,.18799-.08008,.29022-.12106l.22427-.08987,.207-.12463c.07571-.04556,.28668-.1366,.45621-.20975,.25089-.10825,.50836-.22098,.76682-.35025l1.65808-.82925v-12.42068h0Z" style="fill:#fff;"/></g><g><path d="M105.47273,34.35361c-1.00928-1.30957-1.84912-2.80078-2.56787-4.55957-.93262-2.69531-1.37207-5.27539-1.37207-7.96582v-.50391c0-2.93555,.45557-5.65576,1.354-8.08496,.92188-2.4873,2.2085-4.57959,3.93359-6.39697,1.73291-1.73291,3.89551-3.10254,6.28174-3.98779,1.84229-.64941,3.42236-1.02246,4.99512-1.18164,.90479-.08789,1.86963-.17285,2.92334-.17285,1.52197,0,2.92334,.08936,4.16504,.26514,1.35205,.18311,2.53662,.45898,3.51562,.70459,1.17285,.2915,2.20898,.65479,3.0791,1.0791,.13379,.0498,.28125,.11133,.42773,.17432,.10547,.04541,.20947,.09277,.2998,.12256l.1001,.0332,.09521,.04736c.17969,.08984,.35938,.1665,.5332,.24121,.32715,.14111,.66504,.28662,1.00244,.49072l.72412,.43799V15.93173h-3.21338l-.43506-.43457-.16992-.08496-.17236-.17334c-.12646-.12646-.28418-.25-.44873-.3833-.18018-.146-.36719-.29883-.54883-.46143-.12305-.06689-.22705-.14502-.31641-.22412-.44629-.31592-1.1377-.78467-2.0127-1.31152-.74072-.44434-1.57373-.82275-2.47314-1.12256-.84961-.28369-1.79297-.42725-2.80518-.42725-1.14014,0-2.10742,.15137-3.03613,.47656-.17383,.08203-.40234,.18213-.67578,.2373-.73584,.3335-1.37061,.78711-2.03564,1.45312-.74219,.67627-1.396,1.71045-1.94287,3.03955-.25879,.71484-.49561,1.69287-.66211,2.76953-.06738,.61084-.06738,1.30469-.06738,2.03955,0,1.94336,.26904,3.58008,.82227,5.00488,.57227,1.28125,1.20752,2.25586,1.91406,2.91504,.03662,.02637,.07178,.05469,.10693,.08496l1.96973,1.70898-2.46826,.84375c-2.90381,.99121-5.99463,1.99707-9.18652,2.98828l-.99609,.30957-.63672-.82617Z" style="fill:#9d9d9c;"/><path d="M121.02068,3c1.43027,0,2.77661,.08336,3.95468,.25052,1.25885,.17023,2.35077,.42075,3.36093,.67456,1.00842,.25031,2.01678,.58759,2.85913,1.00835,.25137,.08336,.58792,.25211,.83908,.33569,.5058,.252,1.00842,.41895,1.42844,.67276V14.43192h-1.09201c-.0853-.08517-.16949-.16864-.33643-.25201-.33655-.33737-.83908-.67297-1.26132-1.09372q-.08356,0-.16788-.08337c-.58762-.41913-1.34491-.92325-2.18567-1.42929-.84055-.50412-1.76648-.92487-2.77313-1.26056-1.01013-.33728-2.10385-.50424-3.27914-.50424-1.26141,0-2.43839,.16696-3.61304,.58942-.17026,.08176-.33813,.16522-.50592,.16522-1.00772,.42245-1.84827,1.01016-2.68979,1.85178-.9241,.83969-1.6813,2.10037-2.26898,3.52945-.33655,.92511-.58771,2.01682-.75729,3.11053-.08508,.75632-.08508,1.51266-.08508,2.26901,0,2.2691,.33643,4.03558,.92413,5.54807,.67371,1.51276,1.4292,2.68985,2.35504,3.52966,.02542,.02267,.05493,.0379,.0806,.06015-2.96201,1.01218-6.01782,2.00433-9.14642,2.97552-.94446-1.22565-1.72177-2.6312-2.36697-4.21097-.75452-2.18564-1.26065-4.62317-1.26065-7.39832v-.50412c0-2.77325,.4216-5.29617,1.26065-7.56497,.84152-2.27081,2.01862-4.20255,3.61465-5.88385,1.51447-1.51428,3.44876-2.77313,5.71606-3.61464,1.43091-.50433,2.94272-.92509,4.62405-1.09543,.84149-.08188,1.76562-.16524,2.77228-.16524m0-3c-1.12552,0-2.13022,.08861-3.06281,.17934-1.70679,.1729-3.39691,.57033-5.33078,1.25194-2.63422,.97725-4.98334,2.46614-6.84,4.32257l-.02765,.02766-.02695,.02837c-1.86804,1.96785-3.25885,4.22708-4.25192,6.9068-.96078,2.59799-1.4476,5.49332-1.4476,8.60745v.50412c0,2.85965,.46606,5.59988,1.42487,8.37726l.0271,.07849,.0314,.07687c.76938,1.88385,1.6748,3.4892,2.76794,4.90781l1.27335,1.65247,1.99237-.61847c3.20691-.99551,6.31137-2.00546,9.22711-3.00183l4.93735-1.68719-3.94208-3.41821-.12939-.11218-.0159-.01111c-.50616-.49634-.99783-1.27234-1.48465-2.35223-.47412-1.24835-.69519-2.64764-.69519-4.39578,0-.66837,0-1.30093,.05988-1.87457,.1474-.93024,.34778-1.76511,.58148-2.423,.60617-1.45416,1.19073-2.12146,1.48749-2.39111l.05316-.04831,.05078-.05078c.49915-.49921,.95078-.83575,1.46732-1.08813,.30981-.07941,.56311-.18558,.74747-.27072,.74536-.25128,1.53525-.36877,2.47253-.36877,.85025,0,1.63385,.11771,2.32901,.34982,.79742,.2659,1.53061,.59811,2.18024,.98773,.63605,.38284,1.29352,.81039,1.86371,1.21182,.11249,.09351,.22791,.17792,.34637,.2532,.17731,.15442,.3454,.29056,.49329,.41034,.11792,.09549,.27942,.22632,.33093,.27731l.34088,.3374,.17297,.08896,.68771,.67621,1.25845,.0304h4.09201V4.24956l-1.44839-.87526c-.42514-.25693-.828-.43059-1.18344-.5838-.14969-.06451-.30432-.12962-.45877-.20657l-.18954-.09442-.20093-.06686c-.04416-.01683-.11298-.04796-.18237-.07774-.14337-.06151-.28745-.12143-.42331-.17368-.95117-.45805-2.06604-.84724-3.3172-1.15779-1.00992-.25377-2.24463-.54153-3.68161-.73584-1.29123-.18329-2.76355-.27759-4.35669-.27759h0Z" style="fill:#fff;"/></g><g><path d="M134.92928,22.23935c-.01221-.24609-.02344-.4917-.02344-.74658,0-5.14209,1.31787-9.49072,3.91699-12.9248l.22363-.271c.35107-.42432,.68311-.82471,1.09277-1.23242,1.45801-1.54736,3.26904-2.78809,5.50293-3.75879,2.14014-.87695,4.32568-1.38037,6.71045-1.55127,.68652-.0874,1.42627-.0874,2.20947-.0874,4.14697,0,7.77686,.89258,10.78906,2.65283l1.66846,.97461-1.3584,1.37451c-1.66895,1.68945-3.84717,3.47754-6.47461,5.31543l-.7417,.51904-.80469-.41455c-.104-.05322-.20508-.11426-.30566-.17676l-.09619-.05811c-.87354-.36328-1.75781-.54541-2.67627-.54541-.84863,0-1.72412,.15674-2.75098,.49316-.80518,.3457-1.50781,.8877-2.14746,1.65527-.63818,.71045-1.20557,1.77686-1.63721,3.0498-.0498,.22461-.11572,.44873-.18262,.67236-.04932,.16357-.10059,.32617-.1333,.48926-.01367,.06787-.02295,.14111-.03271,.21436-.01416,.10156-.02881,.20264-.0459,.30078l-.13037,.73486-.66455,.33936c-3.01318,1.53906-6.30811,3.09229-9.79346,4.61621l-2.02002,.88379-.09424-2.51855Z" style="fill:#9d9d9c;"/><path d="M154.562,3.16693c3.9317,0,7.27646,.83768,10.03232,2.44788-1.64746,1.66759-3.76389,3.38934-6.26767,5.14062-.16394-.08423-.31631-.20367-.48483-.27374-1.01004-.42096-2.10208-.67297-3.27982-.67297-1.17731,0-2.26752,.25201-3.27927,.58771-1.00674,.42065-1.93097,1.09192-2.77151,2.10037-.7572,.84161-1.43091,2.10205-1.9343,3.61475-.08432,.42245-.25296,.8432-.33716,1.26224-.03503,.17599-.05325,.3688-.08487,.54822-2.99512,1.5296-6.2403,3.05942-9.71259,4.57803-.01193-.33591-.03662-.66241-.03662-1.00717,0-4.87552,1.26044-8.9108,3.61368-12.01971,.42096-.50592,.75729-.92667,1.17792-1.34561,1.42847-1.5145,3.10968-2.60641,5.04248-3.44612,1.85068-.75813,3.86929-1.26236,6.22006-1.43089,.67191-.08359,1.34488-.08359,2.10217-.08359m0-3c-.80481,0-1.56635,0-2.39136,.09673-2.51752,.18768-4.83026,.72493-7.06812,1.64165l-.02921,.01198-.02896,.01259c-2.40738,1.0459-4.36993,2.3893-5.99786,4.1058-.44678,.44856-.79547,.8696-1.16403,1.31467l-.16919,.20396-.04422,.05313-.04172,.05511c-2.8013,3.70085-4.22165,8.35405-4.22165,13.83031,0,.27734,.01196,.54504,.02505,.81268l.01346,.30099,.15668,4.41058,4.04355-1.76846c3.51212-1.53604,6.83453-3.10217,9.87494-4.65491l1.33075-.6796,.25928-1.47159c.02026-.11511,.03745-.23392,.05392-.35284,.00632-.04565,.01175-.09143,.01971-.13544,.02167-.10764,.06165-.22482,.09729-.34344,.05902-.19638,.12939-.43054,.19094-.69308,.50684-1.46616,1.05387-2.17404,1.27018-2.41443l.03793-.04218,.03632-.04358c.46854-.56213,.96991-.95959,1.52991-1.21234,.84216-.27026,1.54926-.39651,2.2164-.39651,.67703,0,1.33508,.12909,2.00763,.39423,.12695,.07837,.25543,.15381,.38602,.22089l1.60855,.82648,1.48193-1.03656c2.70169-1.88968,4.94995-3.73697,6.68234-5.49054l2.71594-2.7491-3.33664-1.94957c-3.2453-1.89616-7.12988-2.8576-11.54578-2.8576h0Z" style="fill:#fff;"/></g><g><path d="M154.56209,41.3165c-3.38721,0-6.38623-.5498-8.91357-1.63281-2.24072-.97559-4.05127-2.21582-5.54199-3.7959-1.78857-1.83496-3.14648-4.08203-4.01855-6.66113l-.44531-1.31641,1.27881-.54395c3.00049-1.27637,5.87598-2.56934,8.54688-3.84277l1.80518-.85986,.3208,1.97412,.05225,.35352c.01953,.14062,.03809,.28027,.06445,.41211,.05664,.28418,.12744,.6377,.20752,.79785l.04785,.0957,.03369,.10254c.45801,1.37695,.9624,2.37402,1.5874,3.1377,.63477,.69727,1.38818,1.25,2.19043,1.58398,.85645,.39258,1.7002,.55762,2.78418,.55762,1.08545,0,1.92969-.16504,2.73779-.53613,.87695-.36719,1.59521-.91504,2.24365-1.69727,.74561-.89062,1.29736-1.97363,1.64404-3.22363,.41113-1.40527,.6167-2.98926,.6167-4.729,0-1.92773-.22217-3.5332-.67969-4.90771l-.07764-.20117-.39307-1.11084,.98633-.64502c2.70215-1.76709,5.09766-3.55029,7.12061-5.30127l1.28223-1.10986,.94482,1.40869c2.14404,3.19531,3.23096,7.18799,3.23096,11.86719,0,6.04639-1.78809,10.8999-5.31445,14.42627-3.39062,3.57227-8.2251,5.39746-14.34229,5.39746Z" style="fill:#102b66;"/><path d="M169.74217,10.46127c1.98795,2.96262,2.97681,6.63348,2.97681,11.03159,0,5.63336-1.59775,10.08789-4.87521,13.36536-3.19238,3.36252-7.64926,4.95856-13.28177,4.95856-3.19409,0-5.96722-.50232-8.32224-1.51245-1.9328-.8399-3.61401-1.93182-5.04248-3.44611-1.66928-1.71292-2.89151-3.75558-3.68851-6.11191,3.00745-1.27908,5.88013-2.56989,8.60492-3.86801,.04419,.26999,.07401,.55743,.12607,.8186,.0842,.42075,.16928,.8399,.33716,1.17529,.50339,1.51447,1.09192,2.68985,1.84998,3.61484,.83978,.92679,1.76392,1.59784,2.77408,2.01862,1.09351,.5025,2.18372,.67297,3.36102,.67297,1.17773,0,2.26978-.17047,3.36337-.67297,1.00845-.42078,1.9343-1.09183,2.77228-2.10199,.84323-1.00854,1.5162-2.27081,1.93524-3.78177,.41895-1.43082,.67117-3.11224,.67117-5.12903,0-2.10217-.25223-3.86685-.75635-5.38132-.0267-.08051-.05899-.1496-.08667-.22818,2.80029-1.83121,5.22614-3.64346,7.28113-5.42209m.60129-4.48802l-2.56458,2.21965c-1.97092,1.70587-4.31253,3.44855-6.95975,5.17966l-1.96945,1.28787,.78174,2.21954c.02649,.0752,.05417,.14664,.08261,.21771,.39731,1.21289,.59003,2.65027,.59003,4.39517,0,1.59692-.18515,3.03894-.55029,4.28601-.30075,1.08328-.75357,1.97797-1.35767,2.7005-.50369,.60715-1.01801,1.00397-1.62595,1.25763l-.04907,.02045-.04831,.02222c-.60858,.27963-1.23984,.39896-2.11078,.39896-.86932,0-1.49988-.11929-2.10834-.39893l-.04919-.02258-.04993-.02081c-.58527-.24377-1.12631-.63876-1.65204-1.20639-.47879-.60416-.89749-1.45703-1.27872-2.60397l-.06787-.20416-.06985-.13959c-.03027-.10242-.07623-.33206-.10461-.47391-.02011-.10086-.03348-.21033-.04868-.31943-.01849-.13287-.03726-.26562-.05847-.39511l-.64514-3.94162-3.60574,1.71783c-2.66635,1.27026-5.5224,2.55405-8.48877,3.81567l-2.55853,1.08817,.89084,2.63373c.94461,2.79282,2.41888,5.23022,4.38181,7.24448,1.60034,1.69702,3.57248,3.0509,5.99536,4.10376,2.72861,1.17041,5.92648,1.76102,9.51788,1.76102,6.52838,0,11.71988-1.97333,15.43051-5.86472,3.79996-3.81552,5.72647-9.01636,5.72647-15.4592,0-4.9823-1.17273-9.25626-3.48566-12.70316l-1.88986-2.81645h0Z" style="fill:#fff;"/></g></svg>