<?xml version="1.0" standalone="no"?>
<!DOCTYPE svg PUBLIC "-//W3C//DTD SVG 20010904//EN"
 "http://www.w3.org/TR/2001/REC-SVG-20010904/DTD/svg10.dtd">
<svg version="1.0" xmlns="http://www.w3.org/2000/svg"
 width="3061.000000pt" height="3061.000000pt" viewBox="0 0 3061.000000 3061.000000"
 preserveAspectRatio="xMidYMid meet">
<metadata>
Created by potrace 1.14, written by Peter Selinger 2001-2017
</metadata>
<g transform="translate(0.000000,3061.000000) scale(0.100000,-0.100000)"
fill="#000000" stroke="none">
<path d="M14820 28678 c-47 -4 -179 -12 -295 -17 -258 -11 -493 -29 -509 -38
-6 -4 -56 -11 -111 -15 -167 -11 -319 -28 -343 -38 -13 -6 -56 -10 -96 -10
-40 0 -76 -3 -80 -7 -9 -10 -144 -31 -241 -39 -38 -4 -76 -11 -82 -16 -12 -10
-69 -20 -208 -37 -38 -5 -83 -14 -98 -20 -16 -6 -43 -11 -62 -11 -19 0 -37 -4
-40 -10 -3 -5 -33 -10 -65 -10 -34 0 -60 -5 -62 -11 -2 -6 -27 -14 -56 -17
-29 -2 -55 -9 -58 -13 -3 -5 -27 -9 -53 -9 -26 0 -52 -5 -59 -12 -11 -11 -63
-23 -147 -35 -22 -3 -49 -12 -60 -19 -11 -8 -38 -14 -62 -14 -23 0 -45 -4 -48
-10 -3 -5 -24 -10 -46 -10 -23 0 -47 -7 -55 -15 -9 -8 -28 -15 -43 -15 -15 0
-31 -3 -34 -7 -6 -6 -113 -37 -229 -66 -25 -7 -50 -15 -54 -20 -4 -4 -17 -7
-30 -7 -12 0 -35 -7 -50 -15 -16 -8 -39 -15 -51 -15 -12 0 -25 -4 -28 -10 -3
-5 -21 -10 -40 -10 -18 0 -35 -5 -37 -11 -2 -5 -22 -13 -46 -16 -23 -3 -42
-10 -42 -14 0 -5 -12 -9 -27 -9 -16 0 -37 -7 -47 -15 -11 -8 -30 -15 -42 -15
-13 0 -26 -4 -29 -10 -3 -5 -18 -10 -33 -10 -15 0 -36 -7 -46 -15 -11 -8 -32
-15 -48 -15 -15 0 -28 -4 -28 -10 0 -5 -9 -10 -20 -10 -12 0 -32 -7 -45 -16
-16 -11 -34 -14 -55 -9 -23 5 -30 3 -30 -9 0 -9 -8 -16 -18 -16 -10 0 -27 -7
-38 -15 -10 -8 -31 -15 -46 -15 -16 0 -28 -4 -28 -10 0 -5 -18 -10 -40 -10
-31 0 -38 -3 -34 -15 5 -11 -1 -15 -24 -15 -17 0 -34 -4 -37 -10 -3 -5 -14
-10 -24 -10 -10 0 -24 -7 -31 -15 -7 -8 -25 -15 -41 -15 -16 0 -29 -4 -29 -10
0 -5 -13 -10 -29 -10 -16 0 -31 -6 -35 -15 -3 -8 -16 -15 -28 -15 -13 0 -32
-7 -42 -15 -10 -8 -22 -12 -26 -10 -4 3 -13 -2 -20 -10 -7 -8 -23 -15 -36 -15
-13 0 -24 -4 -24 -9 0 -5 -13 -12 -30 -16 -16 -4 -30 -11 -30 -16 0 -5 -11 -9
-24 -9 -25 0 -88 -29 -94 -42 -2 -5 -12 -8 -21 -8 -10 0 -39 -11 -65 -25 -26
-14 -53 -25 -60 -25 -8 0 -19 -7 -26 -15 -7 -8 -23 -15 -36 -15 -13 0 -24 -4
-24 -10 0 -5 -8 -10 -19 -10 -10 0 -24 -7 -31 -15 -7 -8 -21 -15 -31 -15 -10
0 -21 -4 -24 -10 -3 -5 -19 -10 -36 -10 -19 0 -29 -5 -29 -15 0 -8 -9 -15 -20
-15 -11 0 -20 -4 -20 -10 0 -5 -8 -10 -19 -10 -10 0 -24 -7 -31 -15 -7 -8 -21
-15 -31 -15 -10 0 -21 -4 -24 -10 -3 -5 -14 -10 -24 -10 -10 0 -24 -7 -31 -15
-7 -8 -21 -15 -31 -15 -11 0 -19 -5 -19 -10 0 -6 -8 -13 -17 -16 -32 -10 -128
-59 -131 -66 -2 -5 -12 -8 -23 -8 -10 0 -19 -4 -19 -8 0 -5 -22 -18 -49 -30
-27 -12 -52 -26 -56 -32 -3 -5 -15 -10 -26 -10 -10 0 -19 -4 -19 -10 0 -5 -8
-10 -19 -10 -10 0 -24 -7 -31 -15 -7 -8 -21 -15 -31 -15 -11 0 -19 -4 -19 -10
0 -5 -15 -10 -32 -10 -23 0 -29 -3 -19 -9 17 -11 -1 -23 -23 -15 -10 4 -18 0
-22 -10 -3 -9 -12 -16 -19 -16 -7 0 -15 -7 -19 -15 -3 -8 -12 -15 -21 -15 -8
0 -15 -4 -15 -10 0 -5 -6 -10 -14 -10 -7 0 -19 -7 -26 -15 -7 -8 -21 -15 -31
-15 -11 0 -19 -4 -19 -10 0 -5 -9 -10 -19 -10 -10 0 -21 -7 -25 -15 -3 -8 -15
-15 -26 -15 -11 0 -20 -4 -20 -10 0 -5 -17 -17 -37 -27 -21 -9 -40 -19 -43
-22 -7 -8 -41 -29 -60 -38 -8 -4 -21 -13 -28 -20 -7 -7 -20 -13 -28 -13 -8 0
-14 -4 -14 -10 0 -5 -7 -10 -15 -10 -9 0 -18 -7 -21 -15 -4 -8 -11 -15 -17
-15 -5 0 -24 -10 -41 -23 -17 -12 -48 -31 -68 -42 -21 -11 -38 -23 -38 -27 0
-5 -5 -8 -11 -8 -6 0 -25 -10 -42 -22 -43 -31 -76 -48 -94 -48 -8 0 -11 -5 -8
-10 3 -6 -2 -13 -12 -17 -10 -4 -23 -12 -30 -17 -34 -30 -43 -36 -52 -36 -6 0
-22 -11 -37 -25 -15 -14 -32 -25 -38 -25 -6 0 -23 -11 -38 -25 -15 -14 -30
-25 -33 -25 -4 0 -13 -7 -22 -16 -9 -8 -22 -13 -29 -10 -8 3 -11 0 -7 -10 3
-9 -1 -14 -15 -14 -11 0 -25 -7 -32 -15 -10 -12 -15 -13 -20 -4 -6 8 -17 4
-39 -12 -28 -20 -29 -24 -14 -30 16 -5 16 -7 -4 -13 -13 -4 -23 -11 -23 -15 0
-4 -29 -28 -65 -52 -36 -24 -65 -47 -65 -51 0 -5 -6 -8 -13 -8 -7 0 -31 -17
-52 -37 -22 -21 -52 -44 -66 -51 -15 -8 -38 -25 -52 -38 -14 -13 -28 -24 -31
-24 -3 0 -19 -13 -37 -30 -18 -16 -46 -36 -63 -44 -17 -9 -27 -16 -22 -16 5 0
-13 -17 -40 -37 -27 -20 -50 -41 -52 -45 -2 -4 -8 -8 -13 -8 -6 0 -22 -11 -37
-25 -15 -14 -30 -25 -34 -25 -4 0 -23 -17 -43 -37 -20 -21 -47 -45 -60 -53
-13 -9 -47 -37 -74 -63 -28 -26 -53 -47 -57 -46 -4 0 -11 -6 -16 -15 -5 -9
-13 -16 -18 -16 -4 0 -30 -22 -57 -50 -26 -27 -51 -50 -55 -50 -5 0 -30 -21
-57 -48 -26 -26 -68 -64 -92 -83 -24 -20 -63 -55 -85 -78 -23 -22 -47 -41 -53
-41 -6 0 -11 -4 -11 -10 0 -15 -33 -50 -42 -44 -4 3 -8 -2 -8 -10 0 -9 -7 -16
-15 -16 -8 0 -15 -4 -15 -10 0 -5 -7 -10 -15 -10 -8 0 -15 -5 -15 -11 0 -16
-111 -119 -127 -119 -8 0 -12 -4 -9 -8 3 -5 -59 -74 -139 -153 -186 -187 -195
-196 -195 -209 0 -5 -5 -10 -11 -10 -14 0 -39 -25 -39 -39 0 -6 -7 -11 -15
-11 -8 0 -14 -3 -14 -7 3 -20 -2 -24 -16 -13 -13 11 -15 10 -13 -7 3 -18 -27
-56 -154 -196 -21 -23 -38 -45 -38 -49 0 -4 -7 -8 -15 -8 -8 0 -15 -4 -15 -8
0 -4 -17 -26 -37 -49 -56 -60 -93 -104 -93 -110 0 -9 -29 -33 -39 -33 -6 0
-11 -7 -11 -16 0 -8 -4 -13 -8 -10 -4 2 -13 -7 -20 -22 -6 -15 -26 -43 -44
-64 -18 -20 -49 -55 -68 -78 -19 -24 -41 -49 -47 -56 -7 -7 -13 -15 -13 -19 0
-13 -64 -70 -74 -67 -6 2 -8 0 -4 -4 9 -9 -20 -62 -49 -91 -13 -12 -23 -25
-23 -28 0 -4 -6 -13 -12 -20 -27 -30 -38 -44 -38 -50 0 -3 -10 -16 -23 -28
-13 -12 -26 -30 -30 -39 -3 -10 -11 -18 -17 -18 -5 0 -10 -5 -10 -10 0 -6 -11
-23 -25 -38 -14 -15 -25 -31 -25 -36 0 -5 -11 -19 -25 -32 -14 -13 -25 -28
-25 -34 0 -5 -4 -10 -10 -10 -5 0 -10 -7 -10 -15 0 -9 -7 -18 -15 -21 -8 -4
-15 -10 -15 -16 0 -5 -6 -16 -13 -23 -27 -31 -37 -44 -37 -50 0 -4 -6 -13 -12
-20 -26 -29 -34 -40 -41 -57 -3 -10 -11 -18 -17 -18 -5 0 -10 -7 -10 -16 0 -8
-4 -12 -10 -9 -6 4 -10 -5 -10 -19 0 -17 -6 -26 -16 -26 -8 0 -13 -4 -9 -9 3
-5 -2 -16 -10 -24 -8 -9 -15 -20 -15 -25 0 -6 -7 -13 -16 -16 -8 -3 -13 -10
-10 -14 3 -5 -3 -16 -12 -25 -30 -28 -42 -46 -42 -62 0 -8 -4 -15 -10 -15 -5
0 -10 -5 -10 -11 0 -6 -18 -36 -40 -67 -51 -72 -75 -108 -112 -167 -7 -11 -15
-22 -18 -25 -3 -3 -14 -22 -25 -42 -11 -21 -23 -38 -27 -38 -5 0 -8 -9 -8 -20
0 -11 -4 -20 -9 -20 -5 0 -12 -11 -15 -25 -4 -14 -11 -25 -16 -25 -6 0 -10 -6
-10 -14 0 -8 -7 -16 -15 -20 -8 -3 -15 -12 -15 -21 0 -8 -4 -15 -10 -15 -5 0
-10 -8 -10 -19 0 -10 -6 -23 -13 -29 -7 -6 -19 -27 -27 -47 -7 -19 -20 -35
-27 -35 -7 0 -13 -11 -13 -26 0 -14 -4 -23 -10 -19 -6 4 -10 -5 -10 -19 0 -14
-4 -26 -10 -26 -5 0 -12 -11 -16 -25 -3 -14 -10 -25 -15 -25 -5 0 -9 -9 -9
-20 0 -11 -4 -20 -10 -20 -5 0 -20 -21 -32 -46 -37 -76 -42 -84 -50 -84 -5 0
-8 -7 -8 -16 0 -18 -31 -77 -42 -82 -5 -2 -8 -10 -8 -17 0 -8 -6 -20 -13 -27
-7 -7 -22 -32 -32 -55 -10 -24 -22 -43 -27 -43 -4 0 -8 -8 -8 -19 0 -10 -7
-24 -15 -31 -8 -7 -15 -21 -15 -31 0 -11 -4 -19 -10 -19 -5 0 -10 -7 -10 -16
0 -8 -7 -22 -15 -30 -8 -9 -15 -24 -15 -35 0 -10 -4 -19 -10 -19 -5 0 -10 -8
-10 -19 0 -10 -7 -24 -15 -31 -8 -7 -15 -21 -15 -31 0 -11 -4 -19 -10 -19 -5
0 -10 -7 -10 -14 0 -8 -11 -36 -25 -62 -14 -26 -25 -53 -25 -59 0 -7 -7 -15
-15 -19 -8 -3 -15 -17 -15 -31 0 -14 -4 -25 -10 -25 -5 0 -10 -8 -10 -19 0
-10 -7 -24 -15 -31 -8 -7 -15 -23 -15 -36 0 -12 -5 -26 -10 -29 -6 -3 -10 -14
-10 -25 0 -10 -7 -20 -15 -24 -8 -3 -15 -17 -15 -31 0 -14 -4 -25 -10 -25 -5
0 -10 -7 -10 -16 0 -9 -6 -28 -14 -42 -7 -15 -19 -40 -26 -57 -7 -16 -16 -37
-21 -45 -5 -8 -12 -22 -15 -30 -18 -45 -27 -68 -40 -93 -8 -16 -14 -37 -14
-47 0 -10 -5 -20 -10 -22 -6 -2 -12 -14 -15 -27 -2 -14 -9 -29 -15 -35 -5 -5
-10 -20 -10 -32 0 -13 -4 -26 -10 -29 -5 -3 -10 -14 -10 -24 0 -10 -7 -24 -15
-31 -8 -7 -15 -23 -15 -35 0 -12 -7 -28 -15 -35 -8 -7 -15 -23 -15 -36 0 -12
-5 -26 -10 -29 -6 -3 -10 -17 -10 -29 0 -13 -7 -29 -15 -36 -8 -7 -15 -23 -15
-36 0 -13 -4 -24 -10 -24 -5 0 -10 -13 -10 -29 0 -16 -7 -36 -15 -45 -8 -8
-15 -26 -15 -40 0 -14 -4 -28 -10 -31 -5 -3 -10 -17 -10 -29 0 -13 -7 -29 -15
-36 -8 -7 -15 -25 -15 -41 0 -16 -4 -29 -9 -29 -5 0 -11 -15 -14 -32 -5 -33
-22 -88 -38 -120 -5 -10 -9 -26 -9 -36 0 -10 -7 -27 -15 -38 -8 -10 -15 -34
-15 -51 0 -18 -4 -33 -9 -33 -5 0 -11 -18 -15 -40 -3 -22 -11 -40 -16 -40 -6
0 -10 -15 -10 -34 0 -19 -4 -37 -9 -40 -4 -3 -11 -24 -15 -46 -3 -22 -11 -40
-16 -40 -6 0 -10 -15 -10 -34 0 -19 -4 -38 -10 -41 -5 -3 -12 -28 -16 -55 -4
-28 -10 -50 -15 -50 -5 0 -9 -12 -9 -27 -1 -16 -7 -39 -15 -53 -8 -14 -14 -39
-15 -57 0 -17 -4 -35 -10 -38 -5 -3 -10 -23 -10 -43 0 -20 -7 -46 -15 -56 -8
-11 -15 -35 -15 -53 0 -18 -4 -33 -10 -33 -5 0 -10 -19 -10 -43 0 -24 -7 -52
-15 -63 -8 -10 -15 -36 -15 -56 0 -20 -4 -40 -10 -43 -5 -3 -10 -22 -10 -41 0
-20 -5 -45 -12 -57 -6 -12 -15 -42 -20 -67 -20 -119 -28 -158 -37 -190 -6 -19
-11 -52 -11 -72 0 -20 -4 -39 -9 -42 -4 -3 -11 -29 -13 -58 -3 -29 -11 -54
-17 -56 -6 -2 -11 -27 -11 -60 0 -30 -4 -69 -9 -86 -27 -89 -41 -174 -60 -366
-5 -53 -14 -96 -20 -98 -7 -2 -11 -31 -11 -73 0 -39 -5 -80 -11 -91 -6 -12
-14 -60 -17 -107 -3 -64 -10 -96 -28 -126 -25 -44 -49 -135 -63 -235 -11 -78
-12 -222 -13 -1175 0 -704 2 -785 22 -960 6 -44 10 -107 10 -142 0 -34 4 -64
8 -67 5 -3 12 -64 15 -135 3 -71 10 -139 16 -150 6 -11 11 -67 11 -125 0 -64
4 -106 10 -106 6 0 10 -29 10 -68 0 -38 7 -91 15 -118 8 -27 15 -81 15 -121 0
-42 4 -73 11 -75 6 -2 13 -39 15 -83 3 -44 9 -84 15 -90 5 -5 9 -41 9 -81 0
-42 4 -74 10 -76 6 -2 14 -29 17 -61 3 -32 10 -60 14 -63 5 -3 9 -29 9 -57 0
-29 7 -70 15 -92 8 -22 14 -57 15 -77 0 -21 5 -38 10 -38 6 0 10 -20 10 -44 0
-24 7 -60 15 -79 8 -20 15 -54 15 -76 0 -22 5 -43 10 -46 6 -3 10 -25 10 -48
0 -23 7 -51 15 -61 8 -11 15 -34 15 -52 0 -18 5 -36 10 -39 6 -3 10 -20 10
-36 0 -16 7 -46 15 -66 8 -19 15 -53 15 -74 0 -21 5 -41 10 -44 6 -3 10 -23
10 -43 1 -20 7 -48 15 -62 8 -14 14 -37 15 -52 0 -14 4 -28 10 -30 5 -1 11
-19 14 -40 2 -20 9 -45 15 -56 6 -12 11 -32 11 -45 0 -14 7 -38 15 -53 8 -16
15 -39 15 -51 0 -12 5 -25 10 -28 6 -3 10 -22 10 -41 0 -19 4 -34 10 -34 5 0
12 -17 15 -37 3 -21 10 -46 16 -55 5 -10 9 -29 9 -44 0 -14 7 -32 15 -40 8 -9
15 -28 15 -44 0 -16 5 -32 10 -35 6 -3 10 -18 10 -33 0 -15 7 -36 15 -46 8
-11 15 -30 15 -43 0 -13 5 -23 10 -23 6 0 10 -10 10 -23 0 -13 7 -32 15 -43 8
-10 15 -33 15 -51 0 -17 5 -35 10 -38 6 -3 10 -17 10 -29 0 -13 7 -29 15 -36
8 -7 15 -23 15 -36 0 -24 2 -30 33 -92 9 -19 17 -45 17 -58 0 -13 5 -24 10
-24 6 0 10 -11 10 -24 0 -13 7 -29 15 -36 8 -7 15 -28 15 -46 0 -19 5 -34 10
-34 6 0 10 -11 10 -25 0 -14 7 -28 15 -31 8 -4 15 -19 15 -34 0 -16 5 -32 10
-35 6 -3 10 -15 10 -25 0 -10 7 -25 15 -34 8 -8 15 -23 15 -34 0 -11 7 -25 15
-32 9 -7 14 -19 11 -26 -3 -8 1 -20 9 -28 8 -8 15 -24 15 -35 0 -11 4 -22 9
-26 5 -3 12 -19 16 -35 4 -17 11 -30 16 -30 5 0 9 -9 9 -19 0 -21 30 -84 43
-89 4 -2 7 -16 7 -32 0 -15 7 -33 15 -40 8 -7 15 -21 15 -31 0 -11 5 -19 10
-19 6 0 10 -13 10 -30 0 -18 5 -29 12 -27 7 1 14 -9 16 -23 2 -14 8 -29 13
-35 5 -5 9 -17 9 -26 0 -9 7 -22 15 -29 8 -7 15 -21 15 -31 0 -11 5 -19 10
-19 6 0 10 -8 10 -19 0 -10 7 -24 15 -31 8 -7 15 -21 15 -31 0 -11 5 -19 10
-19 6 0 10 -11 10 -25 0 -14 7 -28 15 -31 8 -4 15 -14 15 -24 0 -11 4 -21 9
-25 12 -7 41 -64 41 -80 0 -7 7 -18 15 -25 8 -7 15 -21 15 -31 0 -11 5 -19 10
-19 6 0 10 -8 10 -19 0 -10 7 -24 15 -31 8 -7 15 -21 15 -31 0 -11 5 -19 10
-19 6 0 10 -9 10 -19 0 -11 5 -23 10 -26 6 -3 19 -26 30 -51 11 -24 25 -44 30
-44 6 0 10 -11 10 -25 0 -14 5 -25 10 -25 6 0 10 -11 10 -25 0 -14 5 -24 12
-22 7 1 14 -9 16 -23 2 -14 7 -27 11 -30 9 -8 31 -43 37 -62 4 -10 10 -18 15
-18 5 0 9 -6 9 -14 0 -7 7 -19 15 -26 8 -7 15 -21 15 -31 0 -11 3 -19 8 -19 4
0 12 -9 17 -19 41 -80 60 -111 67 -111 4 0 8 -8 8 -19 0 -10 7 -24 15 -31 8
-7 15 -16 15 -21 0 -8 40 -73 60 -96 5 -7 10 -17 10 -23 0 -6 11 -26 25 -44
14 -18 25 -40 25 -48 0 -9 6 -18 13 -21 8 -3 22 -21 31 -41 9 -20 21 -36 26
-36 6 0 10 -9 10 -20 0 -11 3 -20 8 -20 4 0 16 -18 26 -40 11 -22 23 -40 28
-40 4 0 8 -4 8 -9 0 -6 10 -21 23 -35 12 -13 31 -41 42 -63 11 -21 24 -43 30
-50 5 -7 16 -19 23 -27 6 -8 12 -18 12 -21 0 -4 11 -21 25 -39 14 -18 25 -36
25 -40 0 -4 5 -12 10 -19 47 -55 61 -74 66 -89 3 -10 10 -18 15 -18 5 0 9 -9
9 -21 0 -11 4 -18 9 -14 5 3 12 -4 16 -15 3 -11 11 -20 16 -20 5 0 9 -7 9 -14
0 -8 11 -27 25 -42 14 -15 25 -33 25 -40 0 -8 7 -14 15 -14 8 0 15 -6 15 -12
0 -7 16 -31 35 -53 19 -22 35 -43 35 -47 0 -5 8 -16 18 -26 33 -35 62 -72 62
-80 0 -4 11 -19 25 -34 14 -15 25 -31 25 -36 0 -6 7 -13 16 -16 9 -4 14 -9 11
-12 -3 -3 2 -14 11 -23 36 -38 62 -72 62 -81 0 -6 7 -10 15 -10 8 0 15 -5 15
-11 0 -6 6 -16 13 -24 6 -7 23 -28 37 -46 14 -18 31 -38 38 -45 6 -7 12 -15
12 -19 0 -4 6 -12 13 -19 31 -32 82 -96 82 -104 0 -5 14 -22 30 -39 55 -56 76
-84 69 -94 -3 -6 2 -9 12 -7 11 2 18 -2 17 -9 -2 -7 3 -13 10 -13 7 0 20 -12
29 -27 10 -16 33 -45 53 -65 19 -20 35 -41 35 -47 0 -6 7 -11 15 -11 8 0 15
-7 15 -15 0 -8 5 -15 10 -15 6 0 10 -7 10 -17 0 -9 3 -14 6 -10 7 6 12 1 124
-123 47 -52 93 -102 102 -111 10 -9 18 -21 18 -28 0 -6 5 -11 11 -11 9 0 119
-107 119 -116 0 -1 56 -60 125 -129 69 -70 125 -131 125 -136 0 -5 4 -9 8 -9
5 0 31 -20 58 -45 27 -25 52 -45 56 -45 5 0 8 -5 8 -11 0 -14 25 -39 39 -39 6
0 11 -7 11 -15 0 -8 5 -15 11 -15 17 0 99 -82 92 -93 -3 -6 -2 -7 4 -4 5 3 37
-20 71 -51 33 -31 77 -70 97 -87 21 -16 52 -43 70 -60 95 -88 115 -105 125
-105 5 0 10 -7 10 -16 0 -8 4 -13 8 -10 5 3 15 -3 23 -12 8 -9 29 -28 47 -42
17 -14 32 -29 32 -33 0 -13 29 -39 48 -42 9 -1 16 -8 15 -14 -2 -6 4 -11 12
-11 8 0 15 -4 15 -10 0 -5 6 -10 13 -10 7 0 24 -11 39 -25 15 -14 32 -25 38
-25 5 0 10 -7 10 -15 0 -8 5 -15 10 -15 6 0 23 -11 38 -25 15 -14 30 -25 34
-25 9 0 44 -29 90 -73 16 -15 32 -27 37 -27 4 0 20 -11 35 -25 15 -14 31 -25
36 -25 5 0 13 -6 17 -13 4 -8 27 -26 51 -42 23 -15 42 -32 42 -36 0 -5 7 -9
15 -9 7 0 18 -6 22 -13 4 -6 20 -18 34 -25 15 -8 38 -25 52 -38 14 -13 28 -24
31 -24 11 0 96 -64 96 -72 0 -4 7 -8 15 -8 8 0 15 -4 15 -10 0 -5 7 -10 15
-10 9 0 18 -7 21 -15 4 -8 12 -15 20 -15 8 0 14 -4 14 -8 0 -5 10 -14 23 -20
12 -6 16 -11 10 -11 -7 -1 -13 -9 -12 -18 0 -11 3 -13 6 -5 5 13 43 17 43 4 0
-7 30 -25 63 -38 11 -4 16 -13 12 -21 -4 -11 -1 -13 10 -9 9 3 18 -1 21 -9 4
-8 14 -15 24 -15 9 0 29 -11 44 -25 15 -14 34 -25 42 -25 7 0 14 -7 14 -15 0
-8 7 -15 15 -15 8 0 15 -4 15 -10 0 -5 8 -10 19 -10 10 0 24 -7 31 -15 7 -8
19 -15 26 -15 8 0 14 -4 14 -10 0 -5 6 -10 14 -10 7 0 19 -6 25 -14 7 -8 27
-22 46 -31 19 -9 35 -20 35 -25 0 -6 9 -10 20 -10 11 0 20 -4 20 -10 0 -5 7
-10 15 -10 9 0 18 -7 21 -15 4 -8 15 -15 25 -15 10 0 19 -3 19 -8 0 -7 30 -25
63 -38 9 -3 17 -10 17 -15 0 -5 7 -9 15 -9 9 0 18 -6 21 -14 3 -8 15 -17 27
-20 18 -5 20 -8 7 -16 -11 -7 -7 -10 18 -10 17 0 32 -4 32 -10 0 -5 11 -10 25
-10 16 0 25 -6 25 -16 0 -8 4 -13 9 -10 4 3 17 -1 27 -9 10 -8 26 -15 35 -15
9 0 28 -11 43 -25 15 -14 34 -25 42 -25 8 0 17 -7 20 -15 4 -8 15 -15 25 -15
10 0 19 -4 19 -9 0 -5 11 -12 25 -15 14 -4 25 -11 25 -16 0 -6 9 -10 20 -10
11 0 20 -4 20 -9 0 -5 10 -11 23 -13 12 -2 21 -9 20 -16 -2 -7 8 -12 22 -12
14 0 25 -4 25 -10 0 -5 11 -10 25 -10 16 0 25 -6 25 -15 0 -9 9 -15 25 -15 14
0 25 -4 25 -9 0 -5 11 -12 25 -15 14 -4 23 -11 20 -16 -3 -5 5 -10 17 -12 13
-2 22 -9 21 -16 -2 -8 10 -12 32 -12 19 0 35 -4 35 -10 0 -5 9 -10 19 -10 10
0 21 -7 25 -15 3 -8 15 -15 26 -15 11 0 20 -4 20 -10 0 -5 7 -10 17 -10 22 0
93 -32 93 -42 0 -4 10 -8 22 -8 11 0 36 -11 54 -25 18 -14 39 -25 48 -25 17 0
79 -31 84 -42 2 -5 12 -8 23 -8 11 0 22 -7 25 -15 4 -8 17 -15 30 -15 13 0 24
-4 24 -10 0 -5 11 -10 24 -10 13 0 29 -7 36 -15 7 -8 23 -15 36 -15 13 0 24
-4 24 -9 0 -5 10 -11 23 -13 12 -2 21 -9 20 -16 -2 -8 10 -12 32 -12 34 0 47
-13 23 -23 -7 -3 4 -6 25 -6 23 -1 36 -5 32 -11 -4 -6 8 -10 29 -10 19 0 37
-4 41 -9 3 -5 19 -12 35 -16 17 -4 30 -11 30 -16 0 -5 14 -9 30 -9 20 0 30 -5
30 -15 0 -10 10 -15 30 -15 17 0 30 -4 30 -10 0 -5 11 -10 24 -10 13 0 29 -7
36 -15 7 -8 23 -15 36 -15 14 0 23 -5 21 -12 -1 -8 9 -11 31 -9 22 2 34 -2 38
-13 4 -10 18 -16 35 -16 16 0 29 -4 29 -10 0 -5 13 -10 29 -10 16 0 34 -7 41
-15 7 -8 25 -15 41 -15 15 0 31 -5 34 -10 3 -6 14 -10 24 -10 10 0 24 -7 31
-15 7 -8 25 -15 41 -15 15 0 31 -4 34 -10 3 -5 16 -10 29 -10 12 0 31 -7 42
-15 10 -8 29 -15 41 -15 12 0 25 -5 28 -10 3 -6 20 -10 36 -10 17 0 32 -6 35
-15 4 -9 19 -15 40 -15 19 0 34 -4 34 -9 0 -5 18 -11 40 -15 23 -4 38 -11 35
-16 -4 -6 12 -10 39 -10 25 0 46 -4 46 -10 0 -5 13 -10 29 -10 37 0 62 -10 55
-21 -3 -5 13 -9 35 -9 23 0 41 -4 41 -10 0 -5 10 -10 23 -10 12 0 35 -7 51
-15 15 -8 41 -15 57 -15 15 0 31 -4 34 -10 3 -5 19 -10 34 -10 15 0 36 -7 47
-15 10 -8 34 -15 52 -15 20 0 35 -6 38 -15 4 -10 20 -15 49 -15 24 0 47 -4 50
-10 3 -5 21 -10 38 -10 18 -1 43 -7 57 -15 14 -8 42 -14 62 -15 20 0 40 -4 43
-10 3 -5 21 -10 39 -10 19 0 39 -7 46 -15 8 -10 31 -15 66 -15 30 0 54 -4 54
-10 0 -5 18 -10 39 -10 22 0 46 -7 55 -15 9 -9 33 -15 65 -15 27 0 52 -4 55
-9 3 -4 33 -11 66 -15 34 -4 58 -11 55 -17 -4 -5 17 -9 50 -9 30 0 63 -4 73
-9 9 -6 38 -13 65 -16 26 -3 47 -10 47 -16 0 -5 31 -9 69 -9 39 0 73 -4 76
-10 3 -5 27 -10 53 -10 26 -1 65 -7 87 -15 22 -8 65 -15 95 -15 31 0 60 -4 65
-9 6 -5 43 -12 83 -15 40 -2 78 -9 85 -14 7 -5 50 -10 96 -11 47 -1 92 -6 100
-10 9 -5 59 -11 111 -15 52 -3 99 -11 104 -16 6 -6 49 -10 97 -10 48 0 119 -7
157 -15 38 -8 117 -15 176 -16 58 -1 106 -5 106 -10 0 -5 90 -9 201 -9 122 0
208 -4 220 -11 31 -16 814 -23 979 -9 74 7 221 14 325 16 105 2 206 8 225 14
19 5 88 11 152 13 65 3 123 9 130 14 7 6 65 11 128 12 63 1 117 6 120 10 3 5
47 11 99 15 52 4 102 11 112 16 10 6 56 10 103 10 46 0 86 4 88 9 3 10 125 29
243 38 39 2 75 9 82 15 6 5 37 12 68 15 30 3 58 10 61 14 3 5 33 9 68 9 34 0
66 4 72 10 5 5 38 13 72 16 34 4 62 11 62 15 0 5 27 9 59 9 35 0 61 5 63 11 2
6 27 14 56 17 29 2 55 9 58 13 3 5 27 9 53 9 30 0 53 6 60 14 7 8 31 16 54 19
96 13 148 24 159 35 7 7 31 12 55 12 24 0 43 5 43 10 0 6 25 10 56 10 30 0 53
4 50 9 -8 12 18 21 60 21 19 0 34 5 34 10 0 6 13 10 28 10 16 0 37 7 48 15 10
8 38 15 61 15 23 0 43 4 45 10 2 5 18 12 36 14 19 2 39 9 45 15 6 6 25 11 43
11 17 0 37 7 44 15 7 8 27 15 46 15 18 0 36 5 39 10 3 6 22 10 41 10 19 0 34
4 34 10 0 5 18 13 40 16 22 4 43 11 46 15 3 5 17 9 32 9 15 0 36 7 46 15 11 8
30 15 42 15 13 0 26 4 29 10 3 5 21 10 40 10 20 0 35 6 39 15 3 9 18 15 36 15
16 0 30 5 30 10 0 6 12 10 28 10 15 0 36 7 46 15 11 8 32 15 48 15 15 0 28 5
28 10 0 6 18 10 40 10 27 0 39 4 38 13 -2 7 9 13 25 15 15 2 27 8 27 13 0 5
13 9 29 9 16 0 34 7 41 15 7 8 28 15 47 15 20 0 32 4 28 10 -4 6 6 10 23 10
17 0 32 6 36 15 3 9 18 15 36 15 16 0 30 4 30 9 0 5 13 12 30 16 16 4 32 11
35 16 4 5 15 9 25 9 20 0 83 30 88 43 2 4 16 7 32 7 15 0 33 7 40 15 7 8 21
15 31 15 10 0 21 5 24 10 3 6 19 10 35 10 16 0 30 7 34 16 4 12 14 14 36 9 25
-5 29 -4 24 9 -5 12 0 16 19 16 14 0 27 7 31 15 3 8 17 15 31 15 14 0 25 5 25
10 0 6 9 10 21 10 11 0 27 7 36 16 9 8 22 13 30 10 7 -3 16 1 19 9 4 8 19 15
34 15 16 0 30 7 34 15 3 8 12 15 21 15 8 0 15 5 15 10 0 6 13 10 29 10 16 0
31 6 35 15 3 8 15 15 26 15 11 0 20 5 20 10 0 6 8 10 19 10 10 0 24 7 31 15 7
8 17 15 23 15 18 0 87 33 87 42 0 4 11 8 24 8 13 0 26 3 28 8 5 11 67 42 84
42 9 0 12 4 9 10 -4 6 6 10 22 9 25 0 26 -1 8 -9 -13 -6 -15 -9 -5 -9 8 0 24
6 34 14 11 8 14 15 8 15 -7 0 -12 5 -12 10 0 6 12 10 26 10 14 0 23 4 19 10
-3 6 2 13 12 16 26 8 67 28 73 35 10 11 74 39 90 39 10 0 20 7 24 15 3 8 12
15 21 15 8 0 15 5 15 10 0 6 6 10 14 10 7 0 19 7 26 15 7 8 21 15 31 15 11 0
19 5 19 10 0 6 9 10 19 10 10 0 21 7 25 15 3 8 15 15 26 15 11 0 20 4 20 9 0
5 8 11 18 15 9 3 40 20 67 36 28 16 58 33 68 36 9 4 17 10 17 14 0 4 11 11 25
14 14 4 25 11 25 16 0 6 7 10 15 10 8 0 15 4 15 10 0 5 11 12 25 16 14 3 25
10 25 15 0 5 6 9 14 9 7 0 19 6 26 14 6 8 18 12 26 9 8 -3 14 1 14 11 0 9 8
16 20 16 12 0 31 10 43 23 12 12 40 31 62 42 22 11 42 23 43 28 2 4 12 7 23 7
10 0 19 7 19 15 0 8 7 15 15 15 8 0 15 5 15 10 0 6 6 10 14 10 7 0 19 7 26 15
7 8 19 15 26 15 12 0 43 22 80 57 7 7 19 13 27 13 8 0 17 7 21 15 3 8 15 15
26 15 11 0 20 5 20 11 0 7 10 9 25 7 21 -5 25 -2 20 13 -4 13 -1 19 9 19 9 0
16 5 16 10 0 6 6 10 14 10 7 0 19 7 26 15 7 9 20 13 28 10 19 -7 52 23 45 41
-3 8 1 14 10 14 8 0 17 7 21 15 3 8 15 15 26 15 11 0 20 5 20 11 0 6 9 9 20 6
14 -3 20 -1 18 8 -3 15 60 75 80 75 6 0 12 5 12 10 0 6 7 10 15 10 8 0 15 4
15 9 0 6 11 16 23 23 31 17 156 108 179 131 10 9 22 17 27 17 5 0 14 7 21 15
7 8 16 12 21 9 5 -3 9 2 9 10 0 9 6 16 13 16 8 0 25 12 39 28 33 35 76 72 86
72 4 0 27 18 51 40 23 22 47 40 52 40 5 0 9 5 9 10 0 6 7 10 15 10 8 0 15 7
15 15 0 8 5 15 11 15 6 0 17 7 26 15 8 8 19 13 24 10 5 -4 9 1 9 10 0 13 6 16
24 11 15 -4 28 -1 32 6 5 8 2 9 -9 5 -10 -3 -17 -2 -17 3 0 6 5 10 11 10 13 0
39 25 39 37 0 5 14 17 32 28 18 10 53 40 79 67 25 26 49 48 53 48 8 0 48 35
112 97 29 29 58 53 64 53 5 0 10 7 10 16 0 10 6 14 15 10 9 -3 15 0 15 9 0 8
6 15 13 15 8 0 20 11 27 25 7 14 18 25 23 25 5 0 29 19 52 43 134 133 245 237
254 237 6 0 11 7 11 16 0 8 5 12 10 9 6 -3 10 -1 10 5 0 15 55 70 69 70 6 0
11 5 11 11 0 14 25 39 39 39 6 0 11 5 11 12 0 16 81 89 91 82 5 -3 9 2 9 12 0
9 31 49 70 88 90 93 136 142 185 201 22 26 66 75 98 109 97 102 127 135 127
141 0 4 29 36 65 73 36 36 65 69 65 74 0 14 33 47 42 42 4 -3 8 2 8 10 0 9 5
16 10 16 6 0 10 7 10 15 0 8 5 15 10 15 6 0 13 7 17 16 6 17 25 40 90 112 23
26 43 53 43 60 0 7 5 10 10 7 6 -3 10 1 10 11 0 9 11 27 25 40 14 13 25 27 25
33 0 5 11 18 25 29 14 11 25 24 25 28 0 5 18 28 40 52 22 24 40 47 40 52 0 6
5 10 10 10 6 0 10 6 10 13 0 7 11 24 25 39 14 15 25 29 25 32 0 11 64 96 72
96 4 0 8 5 8 10 0 6 11 23 25 38 14 15 25 31 25 36 0 5 11 19 25 32 14 13 25
30 25 39 0 8 4 15 9 15 5 0 11 9 14 21 3 12 10 18 16 14 7 -3 11 2 11 14 0 12
5 21 10 21 6 0 10 6 10 13 0 6 14 28 30 47 43 51 45 54 53 70 20 41 34 59 40
53 4 -3 7 3 7 15 0 13 6 22 15 22 8 0 15 9 15 20 0 11 3 20 8 20 7 0 25 30 38
63 3 9 10 17 15 17 5 0 9 7 9 15 0 9 7 18 15 21 8 4 15 15 15 25 0 10 3 19 8
19 4 0 16 17 27 37 26 49 47 73 57 67 4 -3 8 7 8 21 0 20 4 26 15 21 12 -4 14
0 9 18 -3 13 -1 27 5 30 6 4 11 2 11 -4 0 -6 4 -9 9 -6 4 3 6 17 3 31 -3 19 0
25 13 25 11 0 15 5 11 15 -3 9 1 18 9 21 8 4 15 15 15 25 0 10 4 19 8 19 5 0
18 19 31 42 26 51 44 81 52 88 3 3 9 12 12 20 4 8 16 29 26 45 11 17 20 38 20
48 1 9 8 17 16 17 8 0 15 8 16 18 0 9 9 31 19 47 11 17 29 49 40 73 11 23 25
42 30 42 6 0 10 9 10 20 0 11 4 20 9 20 5 0 12 11 15 25 4 14 11 25 16 25 6 0
10 9 10 19 0 10 7 22 15 25 9 3 15 14 13 23 -2 10 2 17 10 16 7 -2 12 7 12 21
0 13 7 27 16 30 10 4 13 13 9 25 -3 11 -1 22 4 25 13 8 41 65 41 83 0 7 7 16
15 19 8 4 15 12 15 20 0 8 11 32 25 54 14 22 25 49 25 60 0 11 5 20 10 20 6 0
10 8 10 19 0 10 7 24 15 31 8 7 15 21 15 32 0 14 5 18 15 14 11 -4 15 1 15 19
0 30 20 77 37 88 7 4 13 17 13 29 0 13 5 18 14 15 10 -4 13 3 12 26 -1 21 3
31 12 30 8 -2 12 9 12 32 0 23 5 35 14 35 9 0 12 7 9 20 -3 12 1 22 11 26 10
4 16 18 16 35 0 16 5 29 10 29 6 0 10 7 10 16 0 8 11 35 25 60 14 25 25 53 25
63 0 10 7 24 15 31 8 7 15 24 15 37 0 19 4 24 16 19 11 -4 14 -1 10 12 -3 9 1
30 9 46 8 15 15 37 15 47 0 11 5 19 10 19 6 0 10 9 10 19 0 11 7 26 15 35 8 8
15 25 15 38 0 13 7 32 15 42 8 11 15 28 15 38 0 10 5 18 10 18 6 0 10 11 10
25 0 14 7 28 15 31 9 4 15 19 15 39 0 19 5 37 10 40 6 3 10 17 10 29 0 13 7
29 15 36 8 7 15 23 15 36 0 12 5 26 10 29 6 3 10 15 10 25 0 17 18 66 41 112
5 10 9 26 9 37 0 10 7 24 15 31 8 7 15 25 15 41 0 16 5 29 10 29 6 0 10 15 10
34 0 18 7 39 15 46 8 7 15 23 15 36 0 12 5 26 10 29 6 3 10 21 10 39 0 19 7
39 15 46 8 7 15 23 15 36 0 12 5 26 10 29 6 3 10 21 10 39 0 18 7 41 15 52 8
10 15 31 15 46 0 15 4 29 9 32 5 4 12 24 16 46 4 22 11 42 16 46 5 3 9 20 9
39 0 19 4 36 9 39 5 3 12 26 15 51 4 24 11 47 17 50 5 4 9 19 9 34 0 16 7 42
15 57 8 16 15 41 15 56 0 15 5 30 10 33 6 3 10 19 10 34 0 16 7 45 15 64 8 20
15 48 15 62 0 14 5 25 10 25 6 0 10 17 10 39 0 21 7 52 15 67 8 16 15 46 15
66 0 20 5 40 10 43 6 3 10 22 10 41 0 20 5 45 12 57 11 20 17 49 37 181 4 28
13 52 19 54 7 2 12 26 12 57 0 30 5 57 10 60 6 3 10 26 10 49 0 24 7 63 15 86
8 23 15 62 15 86 0 23 5 46 10 49 6 3 10 29 10 56 0 27 7 66 15 86 8 19 15 60
15 91 0 31 4 69 9 86 15 48 32 152 41 251 5 50 14 123 21 163 l12 72 87 0 c59
0 91 4 98 13 8 9 -6 42 -54 125 -47 82 -64 121 -63 145 3 37 -9 97 -22 113 -5
6 -4 62 2 130 43 499 43 1487 0 2089 -7 88 -16 173 -21 189 -6 16 -10 66 -10
112 0 45 -5 95 -11 111 -12 30 -28 171 -36 318 -2 49 -9 92 -14 95 -8 6 -14
40 -38 230 -16 124 -33 215 -42 224 -5 6 -9 38 -9 72 0 35 -6 74 -15 90 -8 16
-15 46 -15 66 0 20 -4 40 -10 43 -5 3 -10 26 -10 49 0 24 -7 60 -15 79 -8 20
-15 56 -15 81 0 25 -4 48 -10 51 -5 3 -10 23 -10 44 0 20 -7 46 -15 57 -8 10
-15 36 -15 56 0 20 -4 40 -10 43 -5 3 -10 30 -10 60 0 38 -4 54 -15 59 -10 4
-15 20 -15 50 0 25 -4 48 -10 51 -5 3 -10 18 -10 33 0 15 -7 40 -15 56 -8 15
-15 41 -15 55 0 15 -3 31 -7 35 -8 7 -29 93 -40 156 -3 19 -9 37 -13 40 -8 6
-30 81 -37 130 -3 19 -12 40 -19 48 -8 7 -14 26 -14 42 0 16 -4 31 -9 34 -5 3
-11 20 -14 38 -2 18 -10 49 -17 68 -7 19 -16 44 -20 55 -4 11 -13 36 -20 55
-7 19 -15 50 -17 68 -3 18 -9 35 -14 38 -5 3 -9 20 -9 39 0 20 -6 35 -15 39
-8 3 -15 16 -15 30 0 14 -4 28 -10 31 -5 3 -10 20 -10 36 0 17 -7 37 -15 45
-8 9 -15 26 -15 40 0 13 -4 24 -10 24 -5 0 -10 13 -10 29 0 16 -7 34 -15 41
-8 7 -15 28 -15 46 0 19 -4 34 -10 34 -5 0 -10 16 -10 35 0 22 -4 34 -12 32
-7 -1 -14 9 -16 23 -2 14 -8 29 -13 35 -5 5 -9 17 -9 26 0 9 -7 22 -15 29 -8
7 -15 23 -15 36 0 12 -11 44 -25 70 -14 26 -25 55 -25 64 0 10 -7 23 -15 30
-8 7 -15 23 -15 36 0 13 -4 24 -10 24 -5 0 -10 6 -10 14 0 7 -7 27 -15 42 -8
16 -15 37 -15 46 0 9 -4 20 -10 23 -5 3 -10 17 -10 31 0 13 -4 24 -8 24 -10 0
-42 71 -42 92 0 9 -7 21 -15 28 -8 7 -15 21 -15 31 0 11 -4 19 -10 19 -5 0
-10 11 -10 24 0 13 -7 29 -15 36 -8 7 -15 21 -15 31 0 11 -4 19 -10 19 -5 0
-10 11 -10 24 0 13 -7 29 -15 36 -8 7 -15 21 -15 31 0 11 -4 19 -10 19 -5 0
-10 8 -10 19 0 10 -7 24 -15 31 -8 7 -15 17 -15 23 0 18 -33 87 -42 87 -4 0
-8 11 -8 25 0 14 -4 25 -8 25 -5 0 -16 19 -26 43 -29 70 -51 112 -58 115 -5 2
-8 12 -8 22 0 10 -7 20 -15 24 -8 3 -15 14 -15 25 0 11 -4 23 -10 26 -5 3 -10
15 -10 26 0 10 -4 19 -9 19 -5 0 -12 11 -15 25 -4 14 -11 25 -16 25 -6 0 -10
9 -10 20 0 11 -7 23 -15 26 -8 4 -15 14 -16 23 0 9 -9 30 -19 46 -11 17 -28
49 -40 72 -11 23 -24 45 -30 48 -5 3 -10 15 -10 26 0 10 -3 19 -8 19 -4 0 -12
9 -17 19 -41 80 -60 111 -67 111 -4 0 -8 11 -8 25 0 14 -4 25 -10 25 -5 0 -10
7 -10 15 0 7 -6 18 -13 22 -7 4 -21 25 -30 45 -10 20 -22 40 -27 43 -6 3 -10
15 -10 26 0 10 -5 19 -10 19 -6 0 -18 18 -27 40 -10 22 -21 40 -25 40 -4 0
-18 21 -30 46 -37 76 -42 84 -50 84 -5 0 -8 9 -8 19 0 10 -7 21 -15 25 -8 3
-15 12 -15 21 0 8 -4 15 -8 15 -4 0 -16 15 -27 33 -10 17 -21 34 -24 37 -10 9
-31 44 -37 63 -4 9 -10 17 -14 17 -4 0 -15 18 -26 40 -10 22 -22 40 -26 40 -5
0 -8 7 -8 15 0 9 -7 18 -15 21 -8 4 -15 11 -15 17 0 5 -11 25 -25 43 -14 18
-25 37 -25 43 0 6 -4 11 -10 11 -5 0 -10 7 -10 15 0 9 -7 18 -15 21 -8 4 -15
12 -15 19 0 7 -6 15 -14 18 -9 4 -12 14 -9 28 4 15 3 20 -5 15 -7 -4 -15 0
-19 11 -4 10 -10 20 -13 23 -4 3 -45 57 -91 120 -45 63 -91 124 -102 135 -10
11 -28 36 -40 55 -11 19 -31 44 -44 55 -13 11 -23 24 -23 28 0 4 -11 20 -24
34 -13 14 -30 37 -38 52 -13 25 -31 48 -73 95 -11 12 -29 35 -40 51 -11 16
-32 42 -47 58 -16 16 -28 33 -28 38 0 5 -4 9 -10 9 -5 0 -10 5 -10 10 0 9 -36
53 -87 106 -7 7 -13 15 -13 18 0 3 -8 14 -17 24 -42 44 -137 154 -152 175 -16
23 -67 81 -113 128 -16 15 -28 30 -28 32 0 3 -45 52 -100 108 -55 57 -100 110
-100 116 0 7 -7 13 -15 13 -8 0 -15 4 -15 8 0 5 -22 30 -49 57 -27 27 -47 53
-45 57 3 4 0 8 -7 8 -12 0 -169 157 -169 170 0 3 -11 13 -25 20 -14 7 -25 19
-25 27 0 7 -5 13 -11 13 -14 0 -39 25 -39 39 0 6 -4 10 -8 9 -5 -2 -53 40
-108 93 -93 90 -186 178 -279 263 -22 20 -68 62 -103 94 -35 31 -75 68 -90 82
-15 14 -31 26 -35 28 -4 1 -8 5 -9 10 -2 4 -15 14 -30 22 -15 8 -57 43 -94 78
-37 34 -70 62 -73 62 -3 1 -24 19 -46 40 -22 22 -43 40 -48 40 -7 0 -53 38
-99 83 -10 9 -22 17 -27 17 -4 0 -19 10 -32 23 -13 13 -42 37 -64 53 -22 16
-56 44 -75 62 -19 18 -48 40 -65 48 -18 8 -51 33 -74 54 -24 22 -45 40 -48 40
-4 0 -21 11 -39 25 -18 14 -35 25 -38 25 -6 0 -37 25 -83 67 -17 15 -20 23
-11 26 7 3 -2 6 -19 6 -18 1 -33 6 -33 11 0 6 -9 10 -20 10 -11 0 -20 6 -20
13 0 12 -24 28 -62 43 -10 3 -18 10 -18 15 0 5 -5 9 -11 9 -6 0 -17 6 -24 13
-32 28 -45 37 -52 37 -5 0 -20 11 -35 25 -15 14 -30 25 -34 25 -3 0 -33 18
-66 40 -33 22 -64 40 -69 40 -5 0 -9 4 -9 9 0 5 -8 11 -17 15 -23 7 -50 25
-82 54 -14 12 -31 22 -38 22 -7 0 -13 5 -13 10 0 6 -6 10 -14 10 -7 0 -19 7
-26 15 -7 8 -19 15 -28 15 -8 0 -25 11 -38 25 -13 14 -30 25 -39 25 -8 0 -15
4 -15 9 0 5 -25 22 -55 36 -30 15 -59 33 -66 41 -6 8 -18 14 -26 14 -13 0 -23
7 -58 38 -7 6 -21 12 -29 12 -9 0 -16 7 -16 15 0 9 -9 15 -25 15 -14 0 -25 5
-25 10 0 6 -9 10 -20 10 -11 0 -20 7 -20 15 0 9 -9 15 -25 15 -14 0 -25 5 -25
10 0 6 -7 10 -15 10 -9 0 -18 7 -21 15 -4 8 -15 15 -25 15 -10 0 -19 4 -19 9
0 5 -11 12 -25 15 -14 4 -23 11 -20 16 3 6 -5 10 -19 10 -14 0 -26 5 -26 10 0
6 -9 10 -20 10 -11 0 -23 7 -26 15 -4 8 -15 15 -25 15 -10 0 -19 5 -19 10 0 6
-11 10 -24 10 -14 0 -27 4 -31 10 -3 5 -37 24 -75 42 -39 18 -70 39 -70 46 0
7 -5 10 -10 7 -6 -4 -22 0 -35 9 -13 9 -31 16 -40 16 -8 0 -15 4 -15 9 0 5
-11 12 -25 15 -14 4 -25 11 -25 16 0 6 -9 10 -20 10 -11 0 -23 7 -26 15 -4 8
-17 15 -30 15 -13 0 -24 5 -24 10 0 6 -8 10 -19 10 -10 0 -24 7 -31 15 -7 8
-23 15 -36 15 -13 0 -24 5 -24 10 0 6 -7 10 -15 10 -9 0 -18 7 -21 15 -4 9
-19 15 -35 15 -16 0 -29 5 -29 10 0 6 -8 10 -19 10 -10 0 -24 7 -31 15 -7 8
-20 15 -29 15 -10 0 -35 8 -57 19 -21 10 -57 26 -79 36 -22 10 -65 29 -95 43
-52 23 -74 33 -145 62 -74 31 -93 40 -145 64 -30 14 -63 26 -72 26 -9 0 -19 4
-23 9 -3 5 -19 12 -35 16 -17 4 -30 11 -30 16 0 5 -11 9 -24 9 -14 0 -31 7
-40 15 -8 8 -24 15 -35 15 -11 0 -23 5 -26 10 -3 6 -20 10 -36 10 -17 0 -32 6
-35 15 -4 8 -19 15 -34 15 -16 0 -32 5 -35 10 -3 6 -19 10 -36 10 -16 0 -29 4
-29 8 0 12 -73 42 -102 42 -14 0 -31 7 -38 15 -7 8 -23 15 -36 15 -12 0 -26 5
-29 10 -3 6 -19 10 -34 10 -15 0 -36 7 -47 15 -10 8 -29 15 -41 15 -12 0 -25
5 -28 10 -3 6 -18 10 -32 10 -13 0 -37 6 -51 14 -15 8 -47 19 -72 26 -25 6
-58 18 -73 26 -16 8 -37 14 -47 14 -10 0 -31 7 -46 15 -16 8 -41 15 -56 15
-15 0 -30 5 -33 10 -3 6 -17 10 -30 10 -13 0 -27 5 -30 10 -3 6 -20 10 -37 10
-16 0 -44 6 -61 14 -18 8 -43 17 -57 20 -68 14 -129 32 -136 39 -4 4 -20 7
-35 7 -14 0 -40 7 -55 15 -16 8 -41 15 -56 15 -15 0 -30 5 -33 10 -3 6 -23 10
-43 10 -20 1 -48 7 -62 15 -14 8 -44 14 -67 15 -24 0 -43 5 -43 10 0 6 -17 10
-38 10 -21 0 -46 6 -57 14 -11 8 -43 16 -70 19 -84 9 -149 23 -172 35 -12 7
-44 12 -72 12 -27 0 -51 4 -53 9 -1 5 -25 12 -52 15 -27 3 -52 9 -55 15 -3 5
-38 11 -76 14 -86 6 -193 24 -220 36 -11 5 -49 12 -85 15 -100 10 -228 30
-236 39 -4 4 -44 7 -89 7 -45 0 -85 3 -89 8 -9 9 -181 30 -326 40 -58 4 -110
10 -116 14 -16 11 -252 28 -514 38 -118 5 -262 13 -320 19 -124 12 -828 11
-950 -1z"/>
<path d="M24590 24989 c0 -5 5 -7 10 -4 6 3 10 8 10 11 0 2 -4 4 -10 4 -5 0
-10 -5 -10 -11z"/>
<path d="M24970 24620 c0 -5 5 -10 10 -10 6 0 10 5 10 10 0 6 -4 10 -10 10 -5
0 -10 -4 -10 -10z"/>
<path d="M25586 23991 c-4 -7 -5 -15 -2 -18 9 -9 19 4 14 18 -4 11 -6 11 -12
0z"/>
<path d="M2900 20414 c0 -8 5 -12 10 -9 6 3 10 10 10 16 0 5 -4 9 -10 9 -5 0
-10 -7 -10 -16z"/>
<path d="M14150 1940 c0 -5 5 -10 10 -10 6 0 10 5 10 10 0 6 -4 10 -10 10 -5
0 -10 -4 -10 -10z"/>
</g>
</svg>
