<?xml version="1.0" encoding="UTF-8"?><svg id="alternate" xmlns="http://www.w3.org/2000/svg" viewBox="0 0 1128.7499 374.1445"><defs><style>.cls-1{fill:#f3b744;}.cls-2{fill:#fdbb53;}.cls-3{fill:#4484c5;}</style></defs><g><path class="cls-2" d="M386.5498,87.1632h9.4l47.1,113.9h-11.9l-14.7-35.6h-51.2l-14.5,35.6h-11.9l47.7-113.9Zm27.5,69.6l-22.8-56.2-23.1,56.2h45.9Z"/><path class="cls-2" d="M518.5497,201.063h-10.9v-46.5c0-10-1.6-17.2-4.4-21.5-2.8-4.3-7.5-6.9-13.4-6.9-3.1,0-6.6,.6-9.7,1.9-3.1,1.2-6.2,2.8-8.7,5-2.8,2.2-5.3,4.7-7.2,7.5-2.2,2.8-3.7,6.2-4.7,9.7v51.2h-10.9V117.563h10v19c3.4-6.2,8.4-10.9,14.7-14.7,6.2-3.7,13.4-5.6,20.6-5.6,4.7,0,8.4,.9,11.5,2.5,3.1,1.6,5.6,4.1,7.8,7.2,1.9,3.1,3.4,6.9,4.1,11.2,.9,4.4,1.2,9.4,1.2,15v48.9Z"/><path class="cls-2" d="M565.3495,202.5634c-5.6,0-11.2-1.201-15.9-3.701-5-2.5-9-5.599-12.8-9.7-3.4-4.099-6.2-8.399-8.1-13.699-1.9-5.3-3.1-10.601-3.1-16.2,0-5.901,.9-11.5,2.8-16.8,1.9-5.3,4.7-10,7.8-13.7,3.4-4.1,7.5-7.2,11.9-9.401,4.7-2.199,9.7-3.4,15.3-3.4,7.201,0,13.4,1.9,18.701,5.601,5.299,3.7,9.699,8.1,12.799,13.4v-50.9h10.9v103c0,3.099,1.2,4.4,3.7,4.4v9.699c-1.6,.301-2.8,.601-3.7,.601-2.5,0-4.699-.901-6.9-2.5-1.9-1.601-2.799-3.7-2.799-5.901v-8.099c-3.401,5.3-7.801,9.7-13.401,13.099-5,2.701-10.9,4.201-17.2,4.201m2.5-9.6c2.8,0,5.601-.601,8.4-1.601,3.1-.899,5.9-2.5,8.4-4.399,2.801-1.9,5-4.101,6.9-6.601,1.901-2.5,3.1-5.299,3.401-8.099v-25.901c-.901-2.799-2.5-5.599-4.701-8.099-2.2-2.5-4.4-4.7-6.9-6.6-2.5-1.9-5.3-3.4-8.399-4.4-3.101-.901-5.901-1.6-8.701-1.6-4.4,0-8.4,.9-12.2,2.8-3.7,1.899-6.9,4.399-9.4,7.5-2.5,3.1-4.7,6.899-5.9,10.899s-2.2,8.101-2.2,12.5,.9,8.701,2.5,12.801c1.6,4.1,3.7,7.5,6.6,10.6,2.9,3.099,5.9,5.599,10,7.2,3.8,2,7.9,3,12.2,3"/><path class="cls-2" d="M661.8495,127.063c-7.5,.3-13.7,2.2-19.3,6.2-5.3,3.7-9.4,9-11.5,15.9v51.9h-10.9V117.463h10.301v20c3.099-6.6,7.199-11.5,12.5-15,5.299-3.7,10.899-5.3,16.799-5.3,.9,0,1.6,0,2.201,.3v9.6h-.101Z"/><path class="cls-2" d="M698.9503,202.563c-6.2,0-11.5-1.2-16.5-3.4s-9.401-5.3-13.101-9.4c-3.7-4.1-6.599-8.4-8.399-13.7-2.2-5.3-3.101-10.6-3.101-16.5s.901-11.5,3.101-16.5c2.199-5.3,5-9.7,8.699-13.7,3.7-4.1,8.101-7.2,13.101-9.4,5-2.5,10.599-3.4,16.5-3.4s11.5,1.2,16.5,3.4c5,2.5,9.399,5.6,13.099,9.4,3.7,3.7,6.601,8.4,8.7,13.7,2.201,5.3,3.1,10.9,3.1,16.5s-.899,11.2-3.1,16.5c-2.2,5.3-5,9.7-8.4,13.7-3.699,4.1-8.1,7.2-13.1,9.4-5.299,2.2-10.9,3.4-17.099,3.4m-30.301-43c0,4.7,.9,9,2.5,13.1,1.601,4.1,3.7,7.5,6.601,10.6,2.799,3.1,5.899,5.3,9.7,7.2,3.699,1.6,7.5,2.5,11.899,2.5,4.101,0,8.101-.9,11.901-2.5,3.7-1.9,6.899-4.1,9.7-7.2,2.8-3.1,5-6.6,6.599-10.6,1.6-4.1,2.5-8.4,2.5-13.1s-.9-9-2.5-13.1c-1.599-4.1-3.7-7.8-6.599-10.6-2.801-3.1-5.901-5.3-9.7-7.2-3.701-1.9-7.5-2.5-11.901-2.5-4.099,0-8.099,.9-11.5,2.5-3.7,1.9-6.899,4.1-9.7,7.2-2.8,3.1-5,6.6-6.6,10.9-1.599,4.3-2.9,8.1-2.9,12.8"/><path class="cls-2" d="M872.4501,201.063h-10.9v-46.5c0-9.7-1.6-16.8-4.701-21.5-3.099-4.7-7.799-6.9-13.7-6.9-3.099,0-6.199,.6-9,1.9-2.8,1.2-5.3,2.8-7.8,5s-4.399,4.7-6.2,7.5c-1.899,2.8-3.099,6.2-4.099,9.7v50.8h-11v-46.5c0-10-1.6-17.2-4.401-21.5-3.099-4.4-7.5-6.9-13.699-6.9s-11.9,2.2-16.801,6.6c-5,4.4-8.399,10.3-10.599,17.2v51.1h-10.901V117.463h10v19c3.401-6.6,7.801-11.5,13.401-15,5.599-3.4,11.5-5.3,18.4-5.3,7.199,0,12.8,1.9,16.8,5.9,4.399,4.1,6.899,9,7.8,15.6,7.799-14.4,18.4-21.5,32.099-21.5,4.7,0,8.7,.9,11.901,2.5,3.099,1.6,5.9,4.1,7.799,7.2,1.901,3.1,3.401,6.9,4.401,11.2,.899,4.4,1.2,9.4,1.2,14.7v49.3Z"/><path class="cls-2" d="M919.2495,202.5628c-6.2,0-11.5-1.2-16.799-3.4-5-2.199-9.401-5.3-13.101-9.4-3.7-4.1-6.6-8.7-8.7-13.7-2.199-5-3.1-10.9-3.1-16.8s.901-11.5,3.1-16.5c2.2-5.3,5-9.7,8.7-13.7,3.7-4.1,8.101-6.9,13.101-9.4,5-2.2,10.599-3.4,16.5-3.4,6.199,0,11.5,1.2,16.799,3.4,5,2.2,9.4,5.3,13.1,9.4,3.7,4.1,6.601,8.4,8.4,13.7,1.9,5,3.1,10.6,3.1,16.2v2.5c0,.9,0,1.6-.3,1.9h-71.5c.3,4.4,1.2,8.7,3.1,12.5,1.9,3.7,4.1,7.2,6.9,10,2.8,2.8,5.901,5,9.7,6.601,3.4,1.599,7.5,2.199,11.5,2.199,2.8,0,5.3-.3,8.1-1.199,2.8-.601,5-1.901,7.5-3.101,2.2-1.2,4.4-2.8,6.2-4.7,1.901-1.9,3.1-4.1,4.1-6.2l9.4,2.5c-1.2,3.1-3.099,5.9-5.3,8.4-2.5,2.5-5,4.7-8.1,6.601-3.1,1.899-6.6,3.399-10.3,4.399-4.3,.601-8.1,1.2-12.1,1.2m30.6-47.7c-.3-4.4-1.2-8.4-3.1-12.2-1.9-3.7-4.1-6.9-6.9-9.7-2.8-2.8-5.899-4.7-9.399-6.2-3.401-1.6-7.5-2.2-11.5-2.2-4.101,0-7.801,.6-11.5,2.2-3.701,1.6-6.901,3.4-9.701,6.2-2.799,2.8-5,5.9-6.6,9.7-1.6,3.7-2.5,7.8-3.1,12.2h61.8Z"/><path class="cls-2" d="M1005.9501,202.5634c-5.601,0-11.2-1.201-15.9-3.701-5-2.5-9-5.599-12.8-9.7-3.401-4.099-6.2-8.399-8.101-13.699-1.899-5.3-3.099-10.601-3.099-16.2,0-5.901,.9-11.5,2.799-16.8,1.901-5.3,4.701-10,7.8-13.7,3.401-4.1,7.5-7.2,11.901-9.401,4.7-2.199,9.7-3.4,15.299-3.4,7.201,0,13.401,1.9,18.701,5.601,5.299,3.7,9.7,8.1,12.799,13.4v-50.9h10.901v103c0,3.099,1.2001,4.4,3.7001,4.4v9.699c-1.6011,.301-2.801,.601-3.7001,.601-2.5,0-4.7-.901-6.901-2.5-1.8989-1.601-2.799-3.7-2.799-5.901v-8.099c-3.401,5.3-7.8,9.7-13.401,13.099-5,2.701-10.899,4.201-17.199,4.201m2.5-9.6c2.8,0,5.6-.601,8.399-1.601,3.101-.899,5.901-2.5,8.4009-4.399,2.8-1.9,5-4.101,6.899-6.601,1.901-2.5,3.101-5.299,3.401-8.099v-25.901c-.901-2.799-2.5-5.599-4.701-8.099-2.199-2.5-4.3989-4.7-6.8989-6.6-2.5-1.9-5.3-3.4-8.4-4.4-3.1-.901-5.901-1.6-8.701-1.6-4.399,0-8.399,.9-12.2,2.8-3.699,1.899-6.899,4.399-9.399,7.5-2.5,3.1-4.7,6.899-5.901,10.899-1.2,4-2.2,8.101-2.2,12.5s.901,8.701,2.5,12.801c1.601,4.1,3.7,7.5,6.601,10.6,2.8,3.099,5.899,5.599,10,7.2,3.8,2,7.899,3,12.2,3"/><path class="cls-2" d="M1081.8499,202.5626c-4.1,0-7.5-.599-10.9-1.9-3.4-1.3-6.2-3.1-8.7-5.6s-4.4-5-5.9-8.1c-1.201-3.1-2.201-6.6-2.201-10.3s.901-6.899,2.5-10c1.6011-3.1,4.1011-5.6,7.201-8.1,3.1-2.2,6.9-4.1,10.9-5.299,4.3989-1.201,9-1.901,14-1.901,4.3989,0,8.7,.3,13.1,1.2,4.4,.6,8.4,1.9,11.5,3.1v-7.5c0-7.5-2.201-13.1-6.201-17.5-4.099-4.399-10-6.6-17.199-6.6-4.4,0-8.7,.9-13.1,2.5-4.4,1.6-9,4.1-13.7001,7.5l-3.7-7.2c10.901-7.2,21.2-10.9,31.5-10.9,10.6,0,18.7,2.801,24.7,8.7,5.9,5.9,9,14,9,24.3v37.801c0,3.099,1.2001,4.399,4.1001,4.399v9.7c-1.9,.3-3.1001,.601-4.1001,.601-2.7999,0-5-.601-6.6-2.2-1.6-1.201-2.5-3.401-2.5-5.601l-.2999-6.6c-3.7001,5-8.7001,8.701-14.4,11.5-5.9,2.8-12.201,4-19,4m2.4-8.4c5.6,0,10.8989-.899,15.6-3.1,4.7-2.2,8.4-5,10.9-8.4,.8989-.899,1.6-1.899,2.2-3.1,.6-1.2,.6-2.2,.6-3.1v-13.699c-3.7-1.201-7.5-2.5-11.2-3.101-3.701-.6-7.8-1.2-11.9-1.2-7.801,0-14,1.6-18.7,4.7-4.7001,3.101-7.2001,7.5-7.2001,12.8,0,2.5,.599,5,1.599,7.2,1,2.2,2.5,4.101,4.1011,5.9,1.6,1.8,3.7,2.8,6.2,4.1,2.5,.7,5.4,1,7.8,1"/></g><g><path class="cls-1" d="M185.0498,217.2632c-11.5,13.1-33.1,14-44.9,1.899-8.1-8.399-10-21.5-5-31.799,.3-.6,.6-1.6,.9-2.2,.6-2.5,3.4-3.4,3.7-5.9,11.5-10,24-11.9,38.1-5.9,1.9,1.6,3.4,3.4,5.9,4.4,2.8,4.4,6.2,8.1,7.2,13.399,.6,3.101,1.6,6.601,1.2,9.701-1.2,2.2-.6,4.4-1.6,6.6-.9,.9-1.2,2.5-1.6,3.699-1.1,2.401-2.7,4.201-3.9,6.101"/><path class="cls-1" d="M38.9497,117.7632c-7.5,6.9-16.2,8.7-25.9,5.3C-.0503,118.3632-4.4503,99.3632,5.2497,89.0632c5-5.3,10.6-7.8,17.5-8.4,11.2-1.2,22.2,9.4,22.5,20.6,0,4.1-.9,7.8-2.2,11.5-1.6,1.5-2.8,3.1-4.1,5"/><path class="cls-1" d="M327.9496,257.1626c3.1-8.1,8.4-13.399,17.2-15.3,11.2-2.5,24.3,6.901,24.3,18.401,0,13.099-9,21.5-20.9,22.2-9.7,.3-17.8-5.601-20.3-15-.3-1.601-.6-2.801-.9-4.401-.4-2.099,.9-4,.6-5.9"/><path class="cls-1" d="M107.6499,28.4628c-3.4,5.3-8.4,8.7-14.4,9-11.9,.3-19.7-8.7-17.2-20,2.3-11.4,15-16.7,25.3-11.4,6.2,3.4,8.7,9,9,15.9-1.2,2.2-1.8,4.3-2.7,6.5"/><path class="cls-1" d="M183.4497,166.3628c-3.4-6.2-4.4-12.2,.6-18.4,3.4-4.4,8.4-5.6,13.7-5.6,1.9,.6,4.1,1.2,5.9,1.6,1.9,2.5,4.4,4.4,5.6,7.2,3.7,8.7-2.8,19.3-12.5,19.7-2.5,0-5,.3-7.2-.6-2-1.4-3.9-2.6-6.1-3.9"/><path class="cls-1" d="M256.1497,269.9634c-11.2-1.2-17.2-9-14.4-18.7,.3-2.5,2.5-4.101,3.7-5.901,2.2-2.2,4.7-3.399,7.5-4.099h6.6c5.6,2.2,9.7,5.599,10.6,12.2-.3,2.199,.3,4.699-.6,6.6-1.6,3.7-4.4,6.2-7.8,8.099-1.8,.601-3.7,1.2-5.6,1.801"/><path class="cls-1" d="M455.2498,33.163c0-5.9,2.8-10.6,8.4-12.5,5-1.9,10.6-1.6,14.7,1.9,6.6,5.6,6.2,16.2-1.6,21.2-6.9,4.4-15.9,3.1-20.6-4.4-1.2-2.1-.6-4.3-.9-6.2"/><path class="cls-1" d="M249.9497,336.4634c5.6,4.1,7.8,9,6.6,14-1.9,8.1-14,14-22.2,5.899-1.6-1.899-2.5-3.7-3.1-5.899-.3-6.2,1.6-10.9,7.2-14,1.6-.9,3.4-.9,5-.9,2.1,.299,4.3-.401,6.5,.9"/><path class="cls-1" d="M365.9496,23.4628c-9-5.3-10.3-13.4-3.4-20.3,3.4-3.4,9.4-4.1,14-1.9,4.4,2.2,6.6,6.9,5.6,13.1-.6,3.7-4.4,7.8-8.7,8.7-.6,0-.9,.6-1.6,.9-1.8,.2-3.7,.2-5.9-.5"/><path class="cls-1" d="M224.0498,362.063c-.6,10-9.4,15-17.2,10.3-4.7-2.8-5-6.9-4.4-11.2,.6-4.1,3.4-6.9,7.5-7.8,4.4-1.2,8.4-.3,11.9,2.8,.9,1.5,1.5,3.7,2.2,5.9"/><path class="cls-1" d="M201.5498,113.3627c1.9-1.2,3.4-2.5,5.3-3.7,3.7,.3,7.8-.6,11.2,2.5,3.7,3.4,3.4,7.5,2.5,11.2-1.2,4.1-4.7,6.2-9,7.2h-1.9c-2.5,0-4.4-1.2-6.6-2.5-4.6-4.7-4.9-8.8-1.5-14.7"/><path class="cls-1" d="M253.9497,292.1626c-3.4-3.399-5.3-7.199-3.7-12.199,.9-3.101,3.1-5,5.9-6.601,2.2-1.2,4.4-.3,6.6-.599,8.1,1.899,10.6,10.899,5.6,16.799-2.2,2.8-5.6,3.1-8.7,4.1-1.9-.3-3.8-.899-5.7-1.5"/><path class="cls-1" d="M372.2498,48.163c-4.1-.3-8.1-.6-10.6-4.7-3.1-5.6-1.6-10.9,4.7-15.6,2.2-1.2,4.4-.6,6.6-.9,8.4,3.1,10.6,10.9,5,18.1-1.7,1.8-3.8,2.1-5.7,3.1"/><path class="cls-1" d="M388.4496,49.0629c1.9,1.6,2.8,3.7,3.7,5.9-.3,9.7-6.9,13.1-15.6,10.3-1.6-1.9-3.7-3.4-4.4-5.9-.6-2.8,.6-5.6,1.6-8.1,1.9-1.2,3.4-2.5,5.3-3.7,3.2,0,6.6-1,9.4,1.5"/><path class="cls-1" d="M249.2499,217.2632c-.3-2.5,1.2-4.4,2.5-6.601,2.2-2.5,5.3-3.099,8.1-4.099,1.9,1.2,4.4,.9,5.9,2.5,6.2,7.5,3.4,15.3-5.9,17.2-1.9-.3-3.7-.601-5.9-.9-2.2-2.201-4.3-4.4-4.7-8.1"/><path class="cls-1" d="M148.8496,39.7632c0-2.2,1.6-4.1,2.5-5.9,1.9,0,3.1-1.6,4.7-1.6,5.6-.3,8.7,3.4,7.2,8.7v1.6c-1.2,1.6-3.4,2.5-5.3,3.1-4.4,.6-7.9-1-9.1-5.9"/></g><g><path class="cls-3" d="M259.9496,206.9633c3.7-5,7.5-10.301,11.2-15.301,5.3-6.899,10.9-13.699,16.2-20.899,7.8-10.3,15.9-20.6,23.7-31.2,9.4-12.5,19-25,28.4-37.4,10.3-13.4,20.6-26.5,30.9-39.9,.6-.901,1.2-1.901,2.2-3.1,.6,2.5,2.8,3.699,4.4,5.9-4.4,5.6-9,11.2-13.4,16.799-8.7,11.201-17.2,22.801-25.9,34-8.7,11.5-17.5,23.101-26.2,34.601-9.7,12.5-19.3,24.7-29,37.1-5.3,6.9-10.3,13.7-15.3,20.599-.3,.301-.6,.601-1.2,.901-2-1.5-4.5-.8-6-2.1"/><path class="cls-3" d="M38.9497,117.7632c1.2-1.6,2.5-3.4,3.7-5,9,6.2,18.1,12.2,26.8,18.4,16.8,11.5,33.7,23.1,50.5,34.9,6.6,4.7,12.8,9.7,20,13.4-.3,2.5-3.4,3.4-3.7,5.9-15.3-10.6-30.3-20.9-45.6-31.5-17.3-12.1-34.5-24.3-51.7-36.1"/><path class="cls-3" d="M201.5498,113.3627c-9-13.7-18.1-27.5-26.8-41.5-5.6-8.7-11.9-16.8-16.8-25.9,1.9-.9,3.7-1.6,5.3-3.1,4.1,5.9,8.1,11.9,12.2,18.1,10.3,15.9,20.9,31.8,31.2,47.7,.3,.3,0,.6,.3,1.2-2,1-3.8,2.2-5.4,3.5"/><path class="cls-3" d="M245.5498,245.3628c-1.2,1.9-3.4,3.101-3.7,5.9-14-8.4-28.1-17.2-42.4-25.6-4.7-2.8-9.4-6.199-14.4-8.1,1.6-1.9,2.8-4.099,4.4-5.9,0,.301,.3,.301,.3,.6,12.8,7.8,25.6,15.6,38.4,23.4,5.9,2.801,11.2,6.9,17.4,9.7"/><path class="cls-3" d="M455.2498,33.163c.3,1.9-.3,4.1,.9,5.9-6.6,2.8-13.4,3.7-20.3,5.3-14,3.4-28.4,6.6-42.4,10-.3,0-.9,.6-1.2,.6-.9-2.2-1.9-4.4-3.7-5.9,10.3-2.5,20.9-5,31.2-7.5,11.8-3.1,23.6-5.6,35.5-8.4"/><path class="cls-3" d="M190.9497,207.563c.6-2.2,.3-4.7,1.6-6.6,3.7,1.6,8.1,1.6,12.2,2.2,9.7,1.9,19.7,3.4,29.3,5,5.9,.9,11.9,1.9,17.8,2.5-1.2,2.2-2.5,4.1-2.5,6.6-.9-.3-1.9-.6-2.8-.6-8.4-1.2-16.5-2.5-25-3.7-10.3-1.9-20.3-3.8-30.6-5.4"/><path class="cls-3" d="M269.5498,259.9634c.9-2.2,.6-4.4,.6-6.601,10.9,.601,21.8,1.201,32.8,2.201,6.9,.299,14,1.2,20.9,.9,1.2,0,2.8-.301,3.7,.6,.6,2.2-.9,3.7-.6,5.9-11.5-.601-22.8-1.2-34.3-2.2-7.5-.401-15.3-.401-23.1-.8"/><path class="cls-3" d="M253.9497,292.1626c1.9,.601,4.1,1.2,5.9,1.601-3.4,14.399-6.6,28.399-10,42.7-2.2-1.2-4.4-.601-6.6-.901,2.5-11.2,5.3-22.5,7.8-33.4,.7-3.5,1.1-6.899,2.9-10"/><path class="cls-3" d="M107.6499,28.4628c.9-2.2,1.6-4.4,2.5-6.6,13.1,3.7,26.2,7.5,39,11.2,.6,.3,1.2,.6,1.9,.9-.9,1.9-2.2,3.4-2.5,5.9-12.5-3.7-25.3-7.5-38.1-11.2-.9-.2-1.9-.2-2.8-.2"/><path class="cls-3" d="M253.9497,225.6626c1.9,.301,3.7,.601,5.9,.9v14.701h-6.6c-.8-5.3,.7-10.601,.7-15.601"/><path class="cls-3" d="M203.1498,128.3628c2.2,1.2,4.1,2.5,6.6,2.5-2.5,4.4-3.1,9.4-5.9,13.4-1.9-.6-4.1-1.2-5.9-1.6,1.4-5,3.9-9.3,5.2-14.3"/><path class="cls-3" d="M224.0498,362.063c-.6-2.2-1.2-4.1-2.5-5.9,2.8-2.2,6.6-3.4,9.7-5.3,.6,2.2,1.6,4.1,3.1,5.9-3.5,1.5-6.9,3.4-10.3,5.3"/><path class="cls-3" d="M183.4497,166.3628c1.9,1.2,3.7,2.5,5.9,3.7-1.6,2.5-4.1,4.4-5.3,7.5-2.5-.9-4.1-2.8-5.9-4.4,2.2-1.8,4.1-4,5.3-6.8"/><path class="cls-3" d="M262.7498,272.7632c-2.2,.3-4.7-.601-6.6,.6v-3.4c1.9-.6,3.7-.9,5.9-1.6-.3,1.6,1,2.9,.7,4.4"/><path class="cls-3" d="M372.8495,27.2632c-2.2,.3-4.4-.3-6.6,.9v-4.4c1.9,.6,4.1,.6,5.9,.6,.1,1,.4,1.9,.7,2.9"/><path class="cls-3" d="M379.1497,47.5629c-1.9,1.2-3.4,2.5-5.3,3.7-.3-.9-1.9-1.6-1.6-2.8,1.9-1.2,4.4-1.2,5.9-3.1,0,.6,.6,1.2,1,2.2"/></g><g><path class="cls-3" d="M415.3815,284.6727c-4.2412,0-8.1597-.9121-11.752-2.7393-3.5938-1.8252-6.7153-4.2549-9.3662-7.2891-2.6509-3.0332-4.6982-6.4502-6.1411-10.25-1.4443-3.7998-2.165-7.6719-2.165-11.6191,0-4.123,.707-8.0859,2.1211-11.8848,1.4136-3.7998,3.4155-7.1865,6.0083-10.1621,2.5913-2.9736,5.6553-5.3301,9.1895-7.0684,3.5347-1.7373,7.3921-2.6064,11.5752-2.6064,6.2437,0,11.2954,1.2812,15.1543,3.8438,3.8574,2.5625,6.7886,5.8467,8.7915,9.8516l-3.7109,2.209c-2.1206-4.1221-4.9346-7.1123-8.4385-8.9688-3.5054-1.8555-7.4663-2.7832-11.8848-2.7832-3.7109,0-7.0688,.7812-10.0728,2.3418-3.0044,1.5615-5.5669,3.6533-7.6875,6.2734-2.1206,2.6221-3.7417,5.582-4.8599,8.8809-1.1196,3.2998-1.6787,6.6865-1.6787,10.1611,0,3.7109,.6475,7.2168,1.9438,10.5146,1.2949,3.2998,3.0923,6.2451,5.3896,8.8359,2.2979,2.5938,4.9775,4.626,8.041,6.0977,3.0625,1.4727,6.3315,2.209,9.8081,2.209,4.0645,0,7.8931-.9863,11.4868-2.96,3.5928-1.9736,7.0386-5.0811,10.3384-9.3223v5.0361c-6.2446,7.5996-13.6074,11.3984-22.0903,11.3984Zm21.1182-27.3027h-14.2261v-3.623h18.1143v30.4844h-3.8882v-26.8613Z"/><path class="cls-3" d="M443.215,271.0223c0-2.7598,.8242-5.1523,2.4741-7.1787,1.6484-2.0254,3.9165-3.6104,6.8037-4.7568,2.8853-1.1445,6.2144-1.7168,9.9849-1.7168,2.3555,0,4.8003,.207,7.334,.6182,2.5317,.4131,4.8003,.9717,6.8037,1.6787v-4.3184c0-4.2168-1.2231-7.585-3.667-10.1055-2.4453-2.5176-5.8179-3.7783-10.1172-3.7783-2.2974,0-4.6831,.4717-7.1572,1.4141s-5.0078,2.2969-7.5991,4.0645l-1.856-3.1816c3.0044-2.002,5.9053-3.5186,8.7036-4.5498,2.7974-1.0303,5.5806-1.5469,8.3501-1.5469,5.4785,0,9.8081,1.6143,12.9893,4.8408s4.7715,7.627,4.7715,13.1992v22.7041c0,.7041,.1616,1.2314,.4858,1.584,.3232,.3516,.8091,.5576,1.458,.6152v3.623c-.5303,.0576-.9717,.0879-1.3252,.0879h-.8838c-1.1196-.1758-1.9883-.6475-2.6064-1.4131-.6187-.7646-.9585-1.6201-1.0161-2.5625v-3.623c-2.1206,2.6514-4.8462,4.7139-8.1733,6.1855-3.3291,1.4717-6.8193,2.209-10.4712,2.209-2.8867,0-5.4932-.6172-7.8198-1.8486-2.3276-1.2334-4.1528-2.9219-5.4785-5.0654-1.3252-2.1436-1.9878-4.5361-1.9878-7.1787Zm31.6333,3.7832c.5879-.7617,1.0298-1.4951,1.3252-2.1992,.2939-.7041,.4419-1.3486,.4419-1.9375v-7.5664c-2.1206-.8203-4.3296-1.4365-6.627-1.8477-2.2974-.4102-4.6543-.6162-7.0688-.6162-4.5952,0-8.3213,.9102-11.1777,2.7285-2.8579,1.8184-4.2856,4.2812-4.2856,7.3906,0,1.9355,.5,3.7246,1.502,5.3682,1.001,1.6426,2.3999,2.9629,4.1973,3.959,1.7964,.9971,3.8726,1.4961,6.2295,1.4961,3.2983,0,6.3467-.6299,9.1455-1.8916,2.7969-1.2607,4.9038-2.8887,6.3179-4.8838Z"/><path class="cls-3" d="M487.7477,219.7274h4.5063v55.7246c0,2.1328,.4419,3.5996,1.3257,4.3984,.8833,.8008,2.0322,1.2002,3.4458,1.2002,.9419,0,1.9136-.0889,2.916-.2656,1.001-.1768,1.8848-.4111,2.6509-.707l.8833,3.623c-1.002,.3535-2.2393,.6768-3.7109,.9717-1.4731,.2949-2.7393,.4424-3.7993,.4424-2.4741,0-4.4624-.7559-5.9644-2.2656-1.5024-1.5107-2.2534-3.5391-2.2534-6.0859v-57.0361Z"/><path class="cls-3" d="M504.712,271.0223c0-2.7598,.8242-5.1523,2.4741-7.1787,1.6484-2.0254,3.9165-3.6104,6.8037-4.7568,2.8853-1.1445,6.2144-1.7168,9.9849-1.7168,2.3555,0,4.8003,.207,7.334,.6182,2.5317,.4131,4.8003,.9717,6.8037,1.6787v-4.3184c0-4.2168-1.2231-7.585-3.667-10.1055-2.4453-2.5176-5.8179-3.7783-10.1172-3.7783-2.2974,0-4.6831,.4717-7.1572,1.4141s-5.0078,2.2969-7.5991,4.0645l-1.856-3.1816c3.0044-2.002,5.9053-3.5186,8.7036-4.5498,2.7974-1.0303,5.5806-1.5469,8.3501-1.5469,5.4785,0,9.8081,1.6143,12.9893,4.8408s4.7715,7.627,4.7715,13.1992v22.7041c0,.7041,.1616,1.2314,.4858,1.584,.3232,.3516,.8091,.5576,1.458,.6152v3.623c-.5303,.0576-.9717,.0879-1.3252,.0879h-.8838c-1.1196-.1758-1.9883-.6475-2.6064-1.4131-.6187-.7646-.9585-1.6201-1.0161-2.5625v-3.623c-2.1206,2.6514-4.8462,4.7139-8.1733,6.1855-3.3291,1.4717-6.8193,2.209-10.4712,2.209-2.8867,0-5.4932-.6172-7.8198-1.8486-2.3276-1.2334-4.1528-2.9219-5.4785-5.0654-1.3252-2.1436-1.9878-4.5361-1.9878-7.1787Zm31.6333,3.7832c.5879-.7617,1.0298-1.4951,1.3252-2.1992,.2939-.7041,.4419-1.3486,.4419-1.9375v-7.5664c-2.1206-.8203-4.3296-1.4365-6.627-1.8477-2.2974-.4102-4.6543-.6162-7.0688-.6162-4.5952,0-8.3213,.9102-11.1777,2.7285-2.8579,1.8184-4.2856,4.2812-4.2856,7.3906,0,1.9355,.5,3.7246,1.502,5.3682,1.001,1.6426,2.3999,2.9629,4.1973,3.959,1.7964,.9971,3.8726,1.4961,6.2295,1.4961,3.2983,0,6.3467-.6299,9.1455-1.8916,2.7969-1.2607,4.9038-2.8887,6.3179-4.8838Z"/><path class="cls-3" d="M570.1862,285.1151c-3.1812,0-6.1562-.6309-8.9243-1.8926-2.7695-1.2627-5.1846-2.9941-7.2456-5.1943-2.063-2.2012-3.667-4.7383-4.8159-7.6143-1.1484-2.876-1.7231-5.958-1.7231-9.2432,0-4.4014,.9722-8.3643,2.916-11.8848s4.624-6.3389,8.041-8.4512c3.4155-2.1123,7.3037-3.1699,11.6636-3.1699,4.1826,0,7.8643,.958,11.0459,2.8721,3.1797,1.915,5.5664,4.5215,7.1562,7.8193l-4.3301,1.4141c-1.3555-2.5322-3.2832-4.5205-5.7871-5.9639s-5.2573-2.165-8.2617-2.165c-3.3574,0-6.3921,.8506-9.1011,2.5508-2.7104,1.7012-4.875,4.0322-6.4946,6.9932-1.6206,2.9629-2.4297,6.29-2.4297,9.9854,0,3.6367,.8242,6.9785,2.4741,10.0273,1.6484,3.0498,3.8438,5.4688,6.5825,7.2578,2.7393,1.7891,5.7573,2.6826,9.0571,2.6826,2.1206,0,4.1968-.3975,6.23-1.1924,2.0312-.7959,3.7988-1.8408,5.3008-3.1367s2.4883-2.6807,2.9609-4.1533l4.3301,1.2373c-.7676,2.1797-2.0918,4.1084-3.9766,5.7871-1.8867,1.6787-4.0801,3.0049-6.584,3.9766s-5.1987,1.458-8.0845,1.458Z"/><path class="cls-3" d="M617.547,282.3758c-.2949,.1182-.8838,.4131-1.7666,.8838-.8838,.4717-2.0039,.8984-3.3584,1.2812-1.3555,.3818-2.8574,.5742-4.5059,.5742-1.5908,0-3.0791-.3125-4.4629-.9336-1.3848-.6211-2.4893-1.5547-3.3135-2.7998-.8252-1.2451-1.2363-2.7568-1.2363-4.5352v-34.8516h-6.4502v-3.623h6.4502v-15.7285h4.4179v15.7285h10.6914v3.623h-10.6914v33.8076c.1172,1.7197,.7354,3.0098,1.8555,3.8701,1.1182,.8594,2.415,1.2891,3.8877,1.2891,1.8252,0,3.416-.3096,4.7715-.9277,1.3545-.6182,2.1494-1.0156,2.3857-1.1924l1.3252,3.5342Z"/><path class="cls-3" d="M623.5558,227.8573v-8.1299h4.418v8.1299h-4.418Zm0,56.374v-45.9473h4.418v45.9473h-4.418Z"/><path class="cls-3" d="M659.6056,285.1151c-3.1807,0-6.1562-.6309-8.9248-1.8926-2.7695-1.2627-5.1836-2.9941-7.2451-5.1943-2.0625-2.2012-3.667-4.7383-4.8154-7.6143-1.1494-2.876-1.7236-5.958-1.7236-9.2432,0-4.4014,.9727-8.3643,2.916-11.8848,1.9443-3.5205,4.624-6.3389,8.041-8.4512,3.416-2.1123,7.3037-3.1699,11.6641-3.1699,4.1816,0,7.8633,.958,11.0449,2.8721,3.1807,1.915,5.5664,4.5215,7.1572,7.8193l-4.3301,1.4141c-1.3555-2.5322-3.2842-4.5205-5.7871-5.9639-2.5049-1.4434-5.2578-2.165-8.2617-2.165-3.3584,0-6.3926,.8506-9.1016,2.5508-2.71,1.7012-4.875,4.0322-6.4941,6.9932-1.6211,2.9629-2.4307,6.29-2.4307,9.9854,0,3.6367,.8242,6.9785,2.4746,10.0273,1.6484,3.0498,3.8438,5.4688,6.583,7.2578s5.7568,2.6826,9.0566,2.6826c2.1211,0,4.1973-.3975,6.2295-1.1924,2.0322-.7959,3.7998-1.8408,5.3018-3.1367s2.4883-2.6807,2.96-4.1533l4.3301,1.2373c-.7666,2.1797-2.0918,4.1084-3.9766,5.7871-1.8857,1.6787-4.0801,3.0049-6.583,3.9766-2.5049,.9717-5.1992,1.458-8.085,1.458Z"/><path class="cls-3" d="M746.9933,231.9217c-1.0029-1.1182-2.1211-2.1055-3.3584-2.96-1.2363-.8535-2.5625-1.5605-3.9756-2.1211-1.4141-.5586-2.9463-.9854-4.5947-1.2812-1.6504-.2939-3.417-.4414-5.3018-.4414-6.1279,0-10.5898,1.1621-13.3867,3.4863-2.7988,2.3232-4.1973,5.4541-4.1973,9.3945,0,2.6484,.6318,4.751,1.8994,6.3096,1.2666,1.5586,3.2549,2.8086,5.9648,3.75,2.709,.9414,6.2139,1.8525,10.5146,2.7334,4.5352,.9424,8.4521,2.0449,11.752,3.3096,3.2988,1.2646,5.8457,2.9863,7.6436,5.1621,1.7959,2.1758,2.6953,5.1172,2.6953,8.8223,0,2.7646-.5303,5.1914-1.5908,7.2793-1.0605,2.0889-2.5928,3.8086-4.5947,5.1621-2.0039,1.3525-4.374,2.3818-7.1133,3.0869s-5.7871,1.0586-9.1455,1.0586c-3.2402,0-6.333-.3535-9.2773-1.0596-2.9463-.707-5.7148-1.7373-8.3066-3.0928-2.5928-1.3545-5.0068-3.0928-7.2451-5.2139l2.3857-3.6221c1.2949,1.4131,2.7529,2.666,4.374,3.7549,1.6191,1.0908,3.3867,2.0186,5.3018,2.7832,1.9131,.7666,3.9609,1.3701,6.1406,1.8115,2.1787,.4424,4.4473,.6631,6.8037,.6631,5.4785,0,9.7637-1.0137,12.8564-3.043,3.0928-2.0283,4.6396-5.042,4.6396-9.041,0-2.7637-.707-4.999-2.1211-6.7051-1.4141-1.707-3.5938-3.1045-6.5391-4.1924-2.9463-1.0879-6.627-2.1025-11.0449-3.0439s-8.1729-2.001-11.2656-3.1768c-3.0928-1.1768-5.4209-2.7637-6.9805-4.7646-1.5615-1.999-2.3418-4.7051-2.3418-8.1182,0-3.7637,.9277-6.9561,2.7832-9.5732,1.8555-2.6182,4.4619-4.6035,7.8203-5.9561,3.3574-1.3535,7.2148-2.0293,11.5752-2.0293,2.709,0,5.2266,.2646,7.5547,.7949,2.3262,.5303,4.4756,1.3408,6.4502,2.4297,1.9727,1.0908,3.8135,2.4609,5.5225,4.1094l-2.2969,3.5342Z"/><path class="cls-3" d="M778.3615,285.1151c-3.2412,0-6.2295-.6172-8.9688-1.8486s-5.1113-2.9492-7.1133-5.1504c-2.0029-2.2002-3.5645-4.7383-4.6836-7.6143-1.1191-2.875-1.6787-5.8975-1.6787-9.0674,0-3.2285,.5596-6.2646,1.6787-9.1113s2.6953-5.3701,4.7275-7.5713c2.0322-2.2002,4.418-3.9316,7.1572-5.1943,2.7393-1.2617,5.6992-1.8926,8.8809-1.8926s6.125,.6309,8.8359,1.8926c2.709,1.2627,5.0947,2.9941,7.1572,5.1943,2.0615,2.2012,3.6514,4.7246,4.7715,7.5713,1.1182,2.8467,1.6787,5.8828,1.6787,9.1113,0,3.1699-.5605,6.1924-1.6787,9.0674-1.1201,2.876-2.6953,5.4141-4.7275,7.6143-2.0322,2.2012-4.418,3.9189-7.1572,5.1504s-5.6992,1.8486-8.8799,1.8486Zm-18.0264-23.5059c0,3.5791,.8096,6.8486,2.4307,9.8096,1.6191,2.9619,3.7842,5.3223,6.4941,7.0811,2.709,1.7598,5.7129,2.6387,9.0127,2.6387s6.3184-.8936,9.0566-2.6826c2.7393-1.7891,4.918-4.1924,6.5391-7.2139,1.6191-3.0195,2.4297-6.3174,2.4297-9.8965,0-3.5752-.8105-6.8604-2.4297-9.8506-1.6211-2.9902-3.7998-5.3809-6.5391-7.1699-2.7383-1.7891-5.7295-2.6836-8.9678-2.6836-3.2998,0-6.3047,.9102-9.0137,2.7266-2.71,1.8184-4.8896,4.2236-6.5381,7.2139-1.6504,2.9902-2.4746,6.333-2.4746,10.0273Z"/><path class="cls-3" d="M806.4591,219.7274h4.5068v55.7246c0,2.1328,.4414,3.5996,1.3252,4.3984,.8838,.8008,2.0322,1.2002,3.4463,1.2002,.9414,0,1.9141-.0889,2.916-.2656,1.001-.1768,1.8848-.4111,2.6504-.707l.8838,3.623c-1.002,.3535-2.2393,.6768-3.7109,.9717-1.4727,.2949-2.7393,.4424-3.7998,.4424-2.4736,0-4.4619-.7559-5.9639-2.2656-1.502-1.5107-2.2539-3.5391-2.2539-6.0859v-57.0361Z"/><path class="cls-3" d="M823.2462,264.8309v-26.459h4.418v25.8359c0,5.7031,.957,9.9521,2.8721,12.7432,1.9131,2.792,4.8154,4.1875,8.7031,4.1875,2.5918,0,5.0811-.5732,7.4668-1.7188s4.4912-2.7617,6.3174-4.8477c1.8252-2.0859,3.1816-4.5107,4.0654-7.2734v-28.9268h4.418v40.0312c0,.707,.1611,1.2363,.4854,1.5879,.3232,.3535,.7803,.5596,1.3701,.6172v3.623c-.5898,.0576-1.0469,.0879-1.3701,.0879-.3242,0-.6045-.0303-.8389-.0879-1.0029-.1172-1.8271-.5439-2.4746-1.2783-.6484-.7344-1.002-1.6309-1.0596-2.6895l-.0889-6.8789c-2.0029,3.6465-4.7578,6.5127-8.2617,8.6006-3.5059,2.0869-7.29,3.1299-11.3545,3.1299-4.8311,0-8.4824-1.7051-10.957-5.1152-2.4736-3.4102-3.7109-8.4658-3.7109-15.1689Z"/><path class="cls-3" d="M888.9865,282.3758c-.2949,.1182-.8838,.4131-1.7666,.8838-.8838,.4717-2.0039,.8984-3.3584,1.2812-1.3555,.3818-2.8574,.5742-4.5059,.5742-1.5908,0-3.0791-.3125-4.4629-.9336-1.3848-.6211-2.4893-1.5547-3.3135-2.7998-.8252-1.2451-1.2363-2.7568-1.2363-4.5352v-34.8516h-6.4502v-3.623h6.4502v-15.7285h4.418v15.7285h10.6914v3.623h-10.6914v33.8076c.1172,1.7197,.7354,3.0098,1.8555,3.8701,1.1182,.8594,2.415,1.2891,3.8877,1.2891,1.8252,0,3.416-.3096,4.7715-.9277,1.3545-.6182,2.1494-1.0156,2.3857-1.1924l1.3252,3.5342Z"/><path class="cls-3" d="M891.4601,227.8573v-8.1299h4.418v8.1299h-4.418Zm0,56.374v-45.9473h4.418v45.9473h-4.418Z"/><path class="cls-3" d="M925.4777,285.1151c-3.2412,0-6.2295-.6172-8.9688-1.8486s-5.1113-2.9492-7.1133-5.1504c-2.0029-2.2002-3.5645-4.7383-4.6836-7.6143-1.1191-2.875-1.6787-5.8975-1.6787-9.0674,0-3.2285,.5596-6.2646,1.6787-9.1113s2.6953-5.3701,4.7275-7.5713c2.0322-2.2002,4.418-3.9316,7.1572-5.1943,2.7393-1.2617,5.6992-1.8926,8.8809-1.8926s6.125,.6309,8.8359,1.8926c2.709,1.2627,5.0947,2.9941,7.1572,5.1943,2.0615,2.2012,3.6514,4.7246,4.7715,7.5713,1.1182,2.8467,1.6787,5.8828,1.6787,9.1113,0,3.1699-.5605,6.1924-1.6787,9.0674-1.1201,2.876-2.6953,5.4141-4.7275,7.6143-2.0322,2.2012-4.418,3.9189-7.1572,5.1504s-5.6992,1.8486-8.8799,1.8486Zm-18.0264-23.5059c0,3.5791,.8096,6.8486,2.4307,9.8096,1.6191,2.9619,3.7842,5.3223,6.4941,7.0811,2.709,1.7598,5.7129,2.6387,9.0127,2.6387s6.3184-.8936,9.0566-2.6826c2.7393-1.7891,4.918-4.1924,6.5391-7.2139,1.6191-3.0195,2.4297-6.3174,2.4297-9.8965,0-3.5752-.8105-6.8604-2.4297-9.8506-1.6211-2.9902-3.7998-5.3809-6.5391-7.1699-2.7383-1.7891-5.7295-2.6836-8.9678-2.6836-3.2998,0-6.3047,.9102-9.0137,2.7266-2.71,1.8184-4.8896,4.2236-6.5381,7.2139-1.6504,2.9902-2.4746,6.333-2.4746,10.0273Z"/><path class="cls-3" d="M990.7755,284.2313h-4.418v-25.5186c0-5.8662-.8389-10.1631-2.5186-12.8906-1.6787-2.7285-4.3447-4.0928-7.9961-4.0928-2.5928,0-5.1406,.6162-7.6436,1.8477-2.5039,1.2314-4.6826,2.916-6.5381,5.0557-1.8564,2.1406-3.1963,4.5576-4.0205,7.2539v28.3447h-4.418v-45.8594h4.1523v11.001c1.2373-2.3467,2.8857-4.3867,4.9482-6.1172,2.0615-1.7314,4.3584-3.0957,6.8926-4.0938,2.5322-.9971,5.1533-1.4971,7.8643-1.4971,2.5312,0,4.668,.4561,6.4062,1.3643,1.7363,.9102,3.1504,2.2158,4.2412,3.917,1.0889,1.7021,1.8691,3.8145,2.3408,6.3389,.4717,2.5234,.707,5.3994,.707,8.626v26.3203Z"/><path class="cls-3" d="M1013.3077,285.1151c-3.6533,0-7.04-.6191-10.1621-1.8555-3.123-1.2373-5.8623-3.1221-8.2178-5.6553l2.0322-3.0928c2.5322,2.416,5.0947,4.168,7.6875,5.2578,2.5918,1.0908,5.4189,1.6348,8.4834,1.6348,3.9453,0,7.1416-.8203,9.5869-2.4619,2.4434-1.6406,3.667-3.9268,3.667-6.8564,0-1.9951-.5742-3.5361-1.7236-4.6211-1.1484-1.085-2.7979-1.9658-4.9482-2.6406-2.1504-.6758-4.7568-1.3945-7.8193-2.1582-3.123-.8203-5.7588-1.6709-7.9082-2.5518-2.1514-.8809-3.7559-2.0254-4.8164-3.4336-1.0596-1.4082-1.5898-3.3164-1.5898-5.7227,0-2.9932,.751-5.4727,2.2529-7.4385,1.502-1.9668,3.5342-3.4326,6.0967-4.4023,2.5625-.9678,5.4043-1.4521,8.5273-1.4521,3.5918,0,6.7295,.5898,9.4102,1.7676,2.6797,1.1787,4.7275,2.7393,6.1416,4.6826l-2.3857,2.8281c-1.4736-1.8848-3.3887-3.2832-5.7441-4.1973-2.3564-.9131-4.9482-1.3701-7.7754-1.3701-2.1211,0-4.124,.2949-6.0088,.8809-1.8857,.5869-3.4014,1.54-4.5508,2.8594-1.1484,1.3203-1.7227,3.0957-1.7227,5.3242,0,1.7617,.4268,3.1406,1.2812,4.1377,.8535,.9971,2.1348,1.8047,3.8438,2.4199,1.708,.6162,3.8281,1.2764,6.3623,1.9785,3.5918,.8809,6.6846,1.791,9.2773,2.7295,2.5918,.9395,4.5947,2.1553,6.0088,3.6523,1.4141,1.4961,2.1201,3.5938,2.1201,6.291,0,4.167-1.5898,7.4531-4.7715,9.8584-3.1807,2.4043-7.3926,3.6074-12.6348,3.6074Z"/></g></svg>