<?xml version="1.0" encoding="utf-8"?>
<!-- Generator: Adobe Illustrator 24.0.3, SVG Export Plug-In . SVG Version: 6.00 Build 0)  -->
<svg version="1.1" id="Layer_1" xmlns="http://www.w3.org/2000/svg" xmlns:xlink="http://www.w3.org/1999/xlink" x="0px" y="0px"
	 viewBox="0 0 325.9 65" style="enable-background:new 0 0 325.9 65;" xml:space="preserve">
<style type="text/css">
	.st0{fill:#FFFFFF;}
	.st1{fill:#D03F40;}
</style>
<title>logo_full_charcoal_red</title>
<g>
	<g>
		<path class="st0" d="M44.2,6.9H19.6c-2.5,0.1-4.4,2.2-4.3,4.7v41.9c-0.1,2.5,1.8,4.5,4.3,4.7h30.2c2.5-0.1,4.4-2.2,4.3-4.7V17.6
			L44.2,6.9L44.2,6.9z M19.6,53.4V11.6h21.5v9.3h8.6v32.6H19.6z"/>
		<path class="st0" d="M6,32.5c0.7,0.4,1.4,0.9,1.9,1.5c0.6,0.6,1.1,1.3,1.5,2.1c0.4,1,0.7,2,0.9,3c0.2,1.4,0.3,2.8,0.3,4.3v7.2
			c0,2.1,0.1,3.9,0.1,5.3c0,1.2,0.3,2.4,0.8,3.4c0.5,0.9,1.3,1.5,2.2,1.8c1.4,0.4,2.8,0.6,4.2,0.5V65h-0.5c-1.8,0-3.6-0.2-5.4-0.7
			c-1.3-0.4-2.5-1.1-3.4-2.1c-0.8-1-1.4-2.2-1.7-3.5c-0.4-1.6-0.5-3.2-0.5-4.8v-13c0-0.8-0.1-1.6-0.4-2.4c-0.2-0.8-0.6-1.5-1.2-2.1
			c-0.6-0.6-1.2-1.2-2-1.5C2,34.3,1,34.1,0,34.1v-3.3c1,0,2-0.2,2.9-0.6c0.8-0.4,1.4-0.9,2-1.5c0.5-0.6,0.9-1.3,1.2-2.1
			c0.2-0.8,0.4-1.6,0.4-2.4v-13C6.4,9.6,6.6,8,7,6.4c0.3-1.3,0.9-2.5,1.7-3.5c0.9-1,2.1-1.7,3.4-2.1C13.8,0.2,15.7,0,17.5,0H18v3.3
			c-1.4-0.1-2.9,0.1-4.2,0.5c-0.9,0.3-1.7,1-2.2,1.8c-0.5,1.1-0.8,2.2-0.8,3.4c-0.1,1.4-0.1,3.2-0.1,5.3v7.2c0,1.4-0.1,2.9-0.3,4.3
			C10.2,27,9.9,28,9.4,29c-0.4,0.8-0.9,1.5-1.5,2.1C7.4,31.7,6.7,32.1,6,32.5z M63.5,32.5c-0.7,0.4-1.4,0.9-2,1.5
			c-0.6,0.6-1.1,1.3-1.5,2.1c-0.4,1-0.7,2-0.9,3c-0.2,1.4-0.3,2.8-0.3,4.3v7.2c0,2.1,0,3.9-0.1,5.3c0,1.2-0.3,2.4-0.8,3.4
			c-0.5,0.9-1.3,1.5-2.2,1.8c-1.4,0.4-2.8,0.6-4.2,0.5V65H52c1.8,0,3.6-0.2,5.4-0.7c1.3-0.4,2.5-1.1,3.4-2.1c0.9-1,1.5-2.2,1.8-3.5
			c0.3-1.6,0.5-3.2,0.5-4.8v-13c0-0.8,0.1-1.6,0.4-2.4c0.2-0.8,0.6-1.5,1.2-2.1c0.6-0.6,1.2-1.2,2-1.5c0.9-0.4,1.9-0.6,2.9-0.6v-3.3
			c-1.9,0.1-3.7-0.7-4.9-2.1c-0.5-0.6-0.9-1.3-1.2-2.1C63.1,25.8,63,25,63,24.2v-13c0-1.6-0.1-3.2-0.5-4.8c-0.3-1.3-0.9-2.5-1.8-3.5
			c-0.9-1-2.1-1.7-3.4-2.2C55.6,0.2,53.8,0,52,0h-0.5v3.3c1.4-0.1,2.9,0.1,4.2,0.5c0.9,0.3,1.7,1,2.2,1.8c0.5,1.1,0.8,2.2,0.8,3.4
			c0.1,1.4,0.1,3.2,0.1,5.3v7.2c0,1.4,0.1,2.9,0.3,4.3c0.2,1.1,0.5,2.1,0.9,3.1c0.4,0.8,0.9,1.5,1.5,2.1
			C62.1,31.7,62.8,32.2,63.5,32.5L63.5,32.5z"/>
	</g>
	<g>
		<ellipse class="st1" cx="39.8" cy="46.5" rx="17" ry="16.9"/>
		<path class="st0" d="M36.9,35.5h6.5v5l-1.3,10.2h-4l-1.2-10.2V35.5z M37.1,52.3h6.1v5.4h-6.1L37.1,52.3z"/>
	</g>
	<path class="st0" d="M113.7,13.5v7.6h-11.9v31.8H93V21.1H81.1v-7.6H113.7z M130.9,13.1c5.9,0,10.4,1.1,13.6,3.2s4.7,5.4,4.7,9.8
		c0.1,2.4-0.6,4.8-1.9,6.7c-1.4,1.8-3.3,3.2-5.5,4.1c0.9,1.1,1.7,2.2,2.5,3.4s1.8,2.6,2.6,4s1.7,2.9,2.5,4.3s1.5,2.9,2.2,4.4h-9.9
		l-2.2-3.9c-0.7-1.3-1.5-2.6-2.3-3.9s-1.5-2.4-2.3-3.5c-0.7-1-1.5-2-2.3-3h-4.4v14.3h-8.9V14.1c2-0.4,4-0.7,6-0.8
		C127.2,13.2,129.1,13.1,130.9,13.1z M131.4,20.6c-0.6,0-1.2,0-1.7,0l-1.4,0.1v10.7h2.5c3.3,0,5.7-0.4,7.2-1.2
		c1.5-0.9,2.3-2.5,2.2-4.2c0.1-1.7-0.7-3.3-2.2-4.1C135.9,20.9,133.6,20.5,131.4,20.6z M185.4,52.9c-0.4-1.4-0.9-2.8-1.4-4.2
		s-1-2.9-1.5-4.3h-15.4c-0.5,1.4-1,2.9-1.5,4.3c-0.5,1.4-1,2.8-1.4,4.2h-9.2c1.4-3.9,2.8-7.8,4.2-11.8c1.3-3.4,2.6-6.8,3.9-10.2
		c1.3-3.2,2.5-6.2,3.8-9.1c1.2-2.9,2.5-5.7,3.8-8.4h8.5c2.7,5.7,5.2,11.5,7.6,17.4c1.3,3.2,2.6,6.6,3.9,10.2
		c1.4,3.9,2.8,7.8,4.2,11.8H185.4L185.4,52.9z M174.8,22.5c-0.2,0.6-0.5,1.3-0.9,2.3c-1,2.5-2,5.1-2.9,7.7c-0.6,1.6-1.2,3.2-1.8,4.9
		h11.2c-0.6-1.6-1.2-3.3-1.8-4.9c-0.5-1.4-1.1-2.8-1.6-4.3c-0.4-1.1-0.9-2.3-1.3-3.4C175.4,24,175.1,23.2,174.8,22.5z M216.6,53.7
		c-6.4,0-11.3-1.8-14.6-5.3c-3.3-3.6-5-8.6-5-15.2c0-3,0.5-5.9,1.5-8.7c0.9-2.4,2.4-4.6,4.2-6.5c1.8-1.8,4-3.1,6.4-4
		c2.6-0.9,5.3-1.4,8-1.4c1.5,0,3,0.1,4.6,0.4c1.2,0.2,2.4,0.5,3.6,0.9c0.9,0.3,1.7,0.6,2.6,1c0.7,0.3,1.2,0.6,1.5,0.8l-2.6,7.2
		c-1.3-0.7-2.8-1.3-4.2-1.6c-1.8-0.5-3.6-0.7-5.5-0.7c-1.4,0-2.7,0.2-4,0.7c-1.3,0.5-2.5,1.2-3.5,2.2c-1.1,1.1-1.9,2.4-2.4,3.9
		c-0.7,1.9-1,3.8-0.9,5.8c0,1.7,0.2,3.4,0.6,5.1c0.4,1.5,1,2.9,1.9,4.1c0.9,1.2,2.1,2.1,3.5,2.7c1.6,0.7,3.4,1.1,5.2,1
		c1.2,0,2.3-0.1,3.5-0.2c0.9-0.1,1.8-0.3,2.7-0.5c0.7-0.2,1.4-0.4,2.1-0.7l1.6-0.7l2.4,7.1c-1.7,0.9-3.4,1.6-5.3,2
		C221.9,53.4,219.2,53.7,216.6,53.7L216.6,53.7z M258.7,52.9c-0.9-1.4-1.8-2.8-2.8-4.2c-1.1-1.5-2.3-3-3.5-4.5s-2.6-2.9-3.9-4.3
		c-1.3-1.3-2.6-2.5-4.1-3.7v16.6h-8.9V13.5h8.9v14.9c2.4-2.5,4.7-5,7-7.6s4.5-5.1,6.5-7.3h10.5c-2.7,3.1-5.4,6.2-8.1,9.2
		c-2.8,3-5.6,6-8.6,8.9c3.3,2.8,6.4,6,9.1,9.4c3.1,3.8,5.9,7.8,8.4,11.9L258.7,52.9z"/>
	<path class="st1" d="M292.1,38.3c0,2.1-0.3,4.2-0.9,6.2c-0.5,1.7-1.4,3.4-2.5,4.7c-1.1,1.3-2.6,2.4-4.2,3c-1.9,0.7-3.9,1.1-5.9,1.1
		c-1,0-2-0.1-3-0.2c-1-0.1-2.1-0.3-3.1-0.6l0.4-4.5c0-0.4,0.2-0.7,0.5-1c0.3-0.3,0.8-0.4,1.2-0.4c0.4,0,0.8,0.1,1.3,0.2
		c0.7,0.1,1.3,0.2,2,0.2c1,0,2-0.1,2.9-0.5c0.8-0.3,1.5-0.8,2.1-1.5c0.6-0.8,1-1.7,1.3-2.7c0.3-1.3,0.5-2.7,0.4-4V11.8h7.6
		L292.1,38.3L292.1,38.3z M322.5,19.3c-0.1,0.4-0.4,0.7-0.7,0.9c-0.3,0.2-0.6,0.3-1,0.3c-0.5,0-0.9-0.2-1.3-0.4
		c-0.5-0.3-1.1-0.7-1.7-1c-0.7-0.4-1.5-0.7-2.2-1c-1-0.3-2-0.5-3.1-0.4c-0.9,0-1.9,0.1-2.8,0.4c-0.7,0.2-1.4,0.6-2,1.1
		c-0.5,0.4-0.9,1-1.2,1.6c-0.3,0.7-0.4,1.4-0.4,2.1c0,0.9,0.3,1.7,0.8,2.4c0.6,0.7,1.3,1.3,2.1,1.6c1,0.5,2,0.9,3,1.2
		c1.1,0.4,2.3,0.7,3.5,1.1c1.2,0.4,2.3,0.9,3.5,1.4c1.1,0.5,2.1,1.2,3,2c0.9,0.8,1.6,1.9,2.1,3c0.6,1.4,0.9,2.9,0.8,4.3
		c0,1.8-0.3,3.5-1,5.2c-0.6,1.6-1.6,3-2.8,4.2c-1.3,1.2-2.8,2.2-4.5,2.8c-1.9,0.7-4,1-6,1c-1.2,0.1-2.5,0-3.7-0.2
		c-1.2-0.2-2.5-0.6-3.6-1.1c-1.2-0.5-2.3-1.1-3.4-1.8c-1-0.6-1.9-1.3-2.7-2.2l2.2-3.7c0.2-0.3,0.5-0.5,0.8-0.7
		c0.3-0.2,0.6-0.3,1-0.3c0.6,0,1.1,0.2,1.5,0.6c0.5,0.4,1.2,0.8,2,1.3c0.8,0.5,1.7,1,2.6,1.3c1.2,0.4,2.4,0.6,3.6,0.6
		c1.8,0.1,3.6-0.4,5.1-1.5c1.2-1.1,1.9-2.8,1.8-4.4c0-0.9-0.2-1.9-0.8-2.7c-0.6-0.7-1.3-1.3-2.1-1.7c-1-0.5-2-0.9-3-1.2
		c-1.2-0.3-2.3-0.7-3.5-1c-1.2-0.4-2.4-0.9-3.5-1.5c-1.1-0.5-2.1-1.2-3-2.1c-0.9-0.9-1.7-2-2.1-3.2c-0.6-1.5-0.9-3.1-0.8-4.7
		c0-3.1,1.2-6,3.4-8.2c1.2-1.1,2.7-2,4.2-2.6c1.8-0.7,3.8-1,5.7-1c2.3,0,4.6,0.4,6.7,1.1c1.9,0.7,3.7,1.8,5.2,3.2L322.5,19.3z"/>
</g>
<path class="st0" d="M325.9,59.9c0,0.7-0.1,1.5-0.4,2.1c-0.5,1.2-1.4,2.1-2.6,2.6c-1.2,0.5-2.5,0.5-3.7,0c-0.6-0.2-1.1-0.6-1.5-1
	c-0.5-0.5-0.8-1-1.1-1.6c-0.5-1.4-0.5-2.9,0-4.3c0.2-0.6,0.6-1.1,1.1-1.6c0.4-0.4,1-0.8,1.5-1c1.2-0.5,2.5-0.5,3.7,0
	c1.2,0.5,2.1,1.4,2.6,2.6C325.7,58.4,325.9,59.1,325.9,59.9z M324.6,59.9c0-0.5-0.1-1.1-0.3-1.6c-0.2-0.5-0.4-0.9-0.8-1.2
	c-0.3-0.3-0.7-0.6-1.1-0.8c-0.5-0.2-1-0.3-1.5-0.2c-0.5,0-1,0.1-1.5,0.3c-0.4,0.2-0.8,0.5-1.1,0.8c-0.3,0.4-0.6,0.8-0.7,1.2
	c-0.3,1-0.3,2.2,0,3.2c0.2,0.5,0.4,0.9,0.7,1.2c0.3,0.3,0.7,0.6,1.1,0.8c0.5,0.2,1,0.3,1.5,0.3c0.5,0,1-0.1,1.5-0.3
	c0.4-0.2,0.8-0.5,1.1-0.8c0.3-0.4,0.6-0.8,0.8-1.2C324.5,61,324.6,60.4,324.6,59.9L324.6,59.9z M322.2,62.5
	c-0.2-0.4-0.4-0.8-0.6-1.1c-0.2-0.3-0.3-0.5-0.5-0.8h-0.8v1.9h-1.2v-5.1c0.3-0.1,0.6-0.1,0.9-0.2c0.2,0,0.5,0,0.7,0
	c0.6,0,1.2,0.1,1.8,0.4c0.4,0.3,0.6,0.8,0.6,1.3c0,0.6-0.3,1.2-0.9,1.4c0.2,0.3,0.4,0.6,0.6,0.9c0.2,0.4,0.4,0.8,0.6,1.2H322.2z
	 M320.3,59.6h0.4c0.3,0,0.6,0,0.9-0.2c0.3-0.2,0.4-0.6,0.2-1c-0.1-0.1-0.1-0.1-0.2-0.2c-0.2-0.1-0.5-0.2-0.8-0.2h-0.2h-0.3
	L320.3,59.6z"/>
</svg>
