<?xml version="1.0" encoding="UTF-8"?>
<svg width="108px" height="24px" viewBox="0 0 108 24" version="1.1" xmlns="http://www.w3.org/2000/svg" xmlns:xlink="http://www.w3.org/1999/xlink">
    <title>Gyldendal logo</title>
    <g>
        <path d="M32.22314,11.14532 C32.35854,11.20092 32.49254,11.27132 32.49254,11.46652 C32.49254,11.46652 32.47394,11.59372 32.47654,11.58192 L32.31074,12.31552 C32.27894,12.45772 32.17554,12.53812 32.02834,12.53812 L31.87174,12.51852 L31.89294,12.52392 L31.64874,12.46572 C31.19114,12.35252 30.34434,12.14172 29.28714,12.14172 C27.23554,12.14172 26.60994,12.86892 26.60994,15.25552 C26.60994,17.65432 27.20674,18.34932 29.27654,18.34932 C29.84434,18.34932 30.36314,18.26472 30.55814,18.22752 L30.55814,16.26252 C30.24114,16.22552 29.22894,16.10072 29.22894,16.10072 C29.07354,16.07952 28.96614,15.97992 28.96614,15.85392 L28.96614,14.95812 C28.96614,14.81912 29.08554,14.71312 29.24214,14.71312 L32.15814,14.71312 C32.32794,14.71312 32.44394,14.82052 32.44394,14.98352 L32.44394,18.27772 C32.44394,18.95192 32.33314,19.28472 31.67794,19.48772 C31.05434,19.66172 29.91474,19.77012 29.21554,19.77012 C25.84634,19.77012 24.65174,18.58052 24.65174,15.22232 C24.65174,11.98252 25.91074,10.66252 29.00334,10.66252 C30.57754,10.66252 31.77474,10.99932 32.22314,11.14532 Z M41.97724,10.8124 C42.14304,10.8124 42.23984,10.9542 42.23984,11.0934 L42.22664,11.176 L42.21884,11.2078 C42.21884,11.2078 38.97764,16.1668 38.94304,16.2176 L38.94304,19.3392 C38.94304,19.5008 38.81304,19.6194 38.63264,19.6194 L37.31664,19.6194 C37.14804,19.6194 37.01804,19.5008 37.01804,19.3392 L37.01804,16.2308 C36.98344,16.1774 33.70384,11.2332 33.70384,11.2332 L33.69844,11.2332 L33.66264,11.1056 C33.66264,10.9542 33.81804,10.8124 33.93604,10.8124 L35.48964,10.8124 C35.67524,10.8124 35.75104,10.8986 35.84384,11.0258 C35.84384,11.0258 37.85264,14.3454 38.02744,14.6294 C38.44284,13.9236 40.14084,11.03 40.14084,11.03 C40.21864,10.8892 40.29484,10.8124 40.47144,10.8124 L41.97724,10.8124 Z M49.72412,18.092 C49.89232,18.092 50.02252,18.2208 50.02252,18.3852 L50.02252,19.3272 C50.02252,19.4902 49.89232,19.6194 49.72412,19.6194 L44.00592,19.6194 C43.83552,19.6194 43.70732,19.5008 43.70732,19.3392 L43.70732,11.2686 C43.70732,11.1982 43.73512,11.03 43.98132,11.0008 L43.98872,11.0008 L45.36972,10.7886 C45.53212,10.7886 45.63252,10.9278 45.63252,11.0564 L45.63252,18.092 L49.72412,18.092 Z M55.2291,18.07734 C56.9029,18.07734 57.6019,17.78034 57.6019,15.19834 C57.6019,12.67254 56.9791,12.22274 55.2291,12.22274 L53.4999,12.22274 L53.4999,18.08794 C53.8913,18.08674 55.2291,18.07734 55.2291,18.07734 Z M55.4323,10.81234 C58.4413,10.81234 59.5609,12.00374 59.5609,15.21054 C59.5609,18.42374 58.4413,19.61934 55.4323,19.61934 L51.8727,19.61934 C51.7059,19.61934 51.5773,19.49014 51.5773,19.32714 L51.5773,11.10554 C51.5773,10.94094 51.7059,10.81234 51.8727,10.81234 L55.4323,10.81234 Z M67.6373,18.09062 C67.8019,18.09062 67.9359,18.21702 67.9359,18.37042 L67.9359,19.32722 C67.9359,19.49022 67.8057,19.61942 67.6373,19.61942 L61.8491,19.61942 C61.6791,19.61942 61.5385,19.48762 61.5385,19.32722 L61.5385,11.10562 C61.5385,10.94362 61.6791,10.81242 61.8491,10.81242 L67.6243,10.81242 C67.7951,10.81242 67.9241,10.93302 67.9241,11.09342 L67.9241,12.00102 C67.9241,12.16982 67.7993,12.29302 67.6243,12.29302 L63.4503,12.29302 L63.4503,14.33642 L67.4491,14.33642 C67.6135,14.33642 67.7435,14.46502 67.7435,14.62802 L67.7435,15.54722 C67.7435,15.70382 67.6121,15.82722 67.4491,15.82722 L63.4503,15.82722 L63.4503,18.09062 L67.6373,18.09062 Z M84.82636,18.09062 C86.49916,18.09062 87.19716,17.78022 87.19716,15.19842 C87.19716,12.67262 86.57496,12.22282 84.82636,12.22282 L83.09636,12.22282 L83.09636,18.10282 C83.48636,18.09882 84.82356,18.09062 84.82636,18.09062 Z M85.02816,10.81242 C88.03716,10.81242 89.15416,12.00362 89.15416,15.21062 C89.15416,18.42382 88.03716,19.61942 85.02816,19.61942 L81.46836,19.61942 C81.30536,19.61942 81.17256,19.49022 81.17256,19.32722 L81.17256,11.10562 C81.17256,10.94102 81.30536,10.81242 81.46836,10.81242 L85.02816,10.81242 Z M107.617,18.092 C107.7856,18.092 107.917,18.2208 107.917,18.3852 L107.917,19.3272 C107.917,19.4902 107.7856,19.6194 107.617,19.6194 L101.899,19.6194 C101.7304,19.6194 101.599145,19.5008 101.599145,19.3392 L101.599145,11.376 C101.599145,11.3046 101.5882,11.0512 101.8762,11.0008 L101.8804,11.0008 L103.2628,10.7886 C103.426,10.7886 103.5242,10.9278 103.5242,11.0564 L103.5242,18.092 L107.617,18.092 Z M72.11758,13.49648 L72.19858,19.30728 C72.19858,19.48908 72.05418,19.62188 71.85758,19.62188 L70.60518,19.62188 C70.41938,19.62188 70.27758,19.48648 70.27758,19.30728 L70.27758,11.13208 C70.27758,10.96228 70.43418,10.81888 70.61578,10.81888 L72.25438,10.81888 C72.41758,10.81888 72.54638,10.95168 72.61918,11.06968 C72.61918,11.06968 75.88018,15.73448 76.60998,16.78388 C76.59538,15.34968 76.54518,11.46388 76.54518,11.46228 C76.54518,11.36548 76.52218,11.10548 76.91898,11.03108 L78.11178,10.81888 C78.46078,10.81888 78.48738,11.06848 78.48738,11.14408 L78.48738,19.30728 C78.48738,19.48908 78.34278,19.62188 78.14658,19.62188 L76.75198,19.62188 C76.45598,19.62188 76.34838,19.48908 76.24898,19.35008 C76.24898,19.35008 72.18798,13.66588 72.11758,13.49648 Z M93.4795,15.97998 L96.6055,15.97998 C96.3653,15.30478 95.2415,12.35398 95.2427,12.35398 C95.2029,12.24918 95.1407,12.24398 95.0451,12.24398 L95.0423,12.24398 C94.9455,12.24398 94.8833,12.24918 94.8433,12.35398 C94.8433,12.35398 93.7211,15.30478 93.4795,15.97998 Z M99.8637,19.16158 C99.8637,19.16158 99.8927,19.24878 99.8927,19.31398 C99.8927,19.53418 99.6807,19.64578 99.2587,19.64578 L98.3553,19.64578 C98.1271,19.64578 97.9081,19.50238 97.8431,19.31818 C97.8431,19.31818 97.1877,17.60618 97.1387,17.47938 L97.1095,17.47938 L92.9767,17.47938 L92.9477,17.47938 C92.8971,17.60618 92.2405,19.31818 92.2405,19.31818 C92.1793,19.50238 91.9579,19.64578 91.7297,19.64578 L90.8261,19.64578 C90.4057,19.64578 90.1893,19.53418 90.1893,19.31398 C90.1893,19.24878 90.2211,19.16158 90.2211,19.16158 L93.2101,11.65758 C93.4729,10.98338 94.1003,10.62658 95.0291,10.62658 L95.0571,10.62658 C95.9843,10.62658 96.6147,10.98338 96.8747,11.65758 L99.8637,19.16158 Z"></path>
        <path d="M2.48574,19.2334 C2.11954,19.1826 1.66614,19.0862 1.16774,18.8992 C0.77594,18.7524 0.44514,18.5824 0.17714,18.4224 L0.13254,18.3944 C0.10014,18.3742 0.07534,18.3418 0.06554,18.3018 C0.04534,18.2202 0.09534,18.1376 0.17694,18.1176 C1.16954,17.8898 2.50534,17.475 3.95174,16.6826 C5.30674,15.9402 6.32474,15.1042 7.03434,14.427 C6.50034,14.4458 5.66934,14.4086 4.72474,14.082 C3.98394,13.8258 3.41994,13.477 3.03754,13.1962 L2.98734,13.16 C2.95994,13.1402 2.93894,13.1112 2.92974,13.0758 C2.90834,12.9952 2.95654,12.9124 3.03734,12.8912 C3.75834,12.7124 5.02374,12.2978 6.28754,11.2832 C7.41734,10.3762 8.06754,9.3736 8.41094,8.7436 C8.04354,8.7554 7.46234,8.7254 6.81374,8.473 C6.42774,8.3228 6.12274,8.1344 5.89814,7.9698 L5.87994,7.957 C5.85954,7.9422 5.84214,7.923 5.82934,7.8996 C5.78334,7.8158 5.81414,7.7106 5.89794,7.6648 C6.84994,7.1352 7.81114,6.5746 8.39514,5.7316 C9.39134,4.3818 9.76054,1.8862 9.89634,0.3244 C9.89634,0.203 9.99134,0.1046 10.10834,0.1046 C10.22554,0.1046 10.32054,0.203 10.32054,0.3244 C10.45634,1.8862 10.82534,4.3818 11.82174,5.7316 C12.40574,6.5746 13.33634,7.1352 14.28834,7.6648 C14.37234,7.7106 14.40294,7.8158 14.35694,7.8996 C14.34414,7.923 14.32674,7.9422 14.30654,7.957 L14.28834,7.9698 C14.06374,8.1344 13.75874,8.3228 13.37274,8.473 C12.72394,8.7254 12.14294,8.7554 11.77554,8.7436 C12.09174,9.241 12.68594,10.0352 13.67594,10.7202 C14.76194,11.4712 15.81314,11.7372 16.41014,11.8424 C16.48914,11.8556 16.54234,11.9304 16.52914,12.0092 C16.52254,12.0478 16.50134,12.0804 16.47214,12.102 L16.41014,12.1474 C16.05294,12.4094 15.53614,12.7282 14.86294,12.9662 C13.94174,13.292 13.12894,13.325 12.61234,13.3042 C13.23234,13.8384 14.14654,14.5128 15.36734,15.0732 C16.54574,15.614 17.73954,15.8944 18.53174,16.0202 C18.61074,16.0334 18.66394,16.1082 18.65074,16.187 C18.64434,16.2256 18.62314,16.2582 18.59394,16.2796 L18.53174,16.3252 C18.05694,16.674 17.35174,17.1104 16.42274,17.4284 C15.26434,17.8248 14.24674,17.8698 13.59174,17.8466 L13.59574,17.8858 L17.14934,19.3678 C17.24174,19.407 17.28454,19.5136 17.24534,19.606 C17.22594,19.6512 17.19054,19.6846 17.14854,19.7022 L17.11214,19.722 C16.93934,19.814 16.74314,19.9076 16.52414,19.9952 C16.29314,20.0876 16.07514,20.158 15.87754,20.2122 C16.03214,20.385 16.19194,20.5594 16.35694,20.7346 C17.11434,21.5386 17.85994,22.233 18.55974,22.8282 C18.63174,22.8896 18.64034,22.998 18.57874,23.0704 C18.54834,23.1056 18.50694,23.1256 18.46414,23.1296 C17.71894,23.1878 16.69914,23.1876 15.47454,22.924 C14.43114,22.6996 13.57894,22.3492 12.94374,22.0278 C13.03054,22.297 13.14474,22.5978 13.29594,22.9178 C13.44134,23.2252 13.59474,23.4946 13.74194,23.7258 C13.79334,23.8068 13.76934,23.9144 13.68834,23.9658 C13.64854,23.9912 13.60254,23.9982 13.55974,23.9894 C12.70294,23.747 11.56694,23.3256 10.29734,22.5078 C9.03914,21.6972 8.15334,20.8024 7.57954,20.127 C7.59754,20.3736 7.63454,20.659 7.70574,20.971 C7.78434,21.3154 7.88634,21.613 7.98754,21.859 C7.33114,22.2204 6.36654,22.6594 5.13614,22.924 C3.91174,23.1876 2.89194,23.1878 2.14674,23.1296 C2.10374,23.1256 2.06234,23.1056 2.03214,23.0704 C1.97054,22.998 1.97894,22.8896 2.05114,22.8282 C2.75094,22.233 3.49654,21.5386 4.25374,20.7346 C4.89754,20.051 5.46114,19.382 5.95254,18.749 L5.96074,18.7034 C5.53514,18.9806 5.01254,19.2764 4.39394,19.5412 C3.57974,19.8894 2.83234,20.084 2.22514,20.1966 C2.17674,20.2068 2.12454,20.1988 2.07934,20.1704 C1.98754,20.112 1.96014,19.9902 2.01854,19.8982 L2.48574,19.2334 Z"></path>
    </g>
</svg>