<?xml version="1.0" encoding="UTF-8"?><svg id="a" xmlns="http://www.w3.org/2000/svg" viewBox="0 0 1000 1000"><g><path d="M51.17578,339.771l38.31738-54.45166c20.67139,17.14258,44.36816,30.25098,69.57715,30.25098,33.27588,0,54.45166-13.1084,54.45166-41.34277,0-27.22559-22.18408-41.34277-50.41846-41.34277-19.15869,0-28.23389,3.0249-49.40967,15.12549l-37.30908-24.20068,8.06689-164.36328h201.67236v72.60205h-127.05371l-4.0332,46.38477c13.1084-4.0332,22.68799-5.0415,35.29248-5.0415,57.98096,0,109.91162,31.25879,109.91162,98.81934,0,71.59375-60.50195,112.93652-128.06201,112.93652-54.95605,0-93.77783-19.15918-121.00342-45.37646Z"/><path d="M357.70898,217.75928c0-109.40723,50.92236-164.36279,126.04492-164.36279s126.0459,54.95557,126.0459,164.36279-50.92285,167.38818-126.0459,167.38818-126.04492-57.98096-126.04492-167.38818Zm175.45508,0c0-79.66064-22.68848-97.81104-49.41016-97.81104s-49.40918,18.15039-49.40918,97.81104,22.68799,100.83643,49.40918,100.83643,49.41016-21.17578,49.41016-100.83643Zm-89.74414,0c0-24.20068,17.14209-40.33447,40.33398-40.33447s40.33496,16.13379,40.33496,40.33447-17.14258,40.33447-40.33496,40.33447-40.33398-16.13379-40.33398-40.33447Z"/></g><line x1="57" y1="769" x2="951" y2="250" style="fill:none; stroke:#000; stroke-miterlimit:10; stroke-width:60px;"/><g><path d="M406.33887,915.80859l38.31738-54.45215c20.67139,17.14258,44.36816,30.25098,69.57715,30.25098,33.27539,0,54.45117-13.1084,54.45117-41.34277,0-27.22559-22.18359-41.34277-50.41797-41.34277-19.15869,0-28.23389,3.02539-49.40967,15.12598l-37.30908-24.20117,8.06689-164.36328h201.67236v72.60254h-127.05371l-4.0332,46.38477c13.1084-4.0332,22.6875-5.04199,35.29199-5.04199,57.98145,0,109.91211,31.25879,109.91211,98.81934,0,71.59375-60.50195,112.93652-128.0625,112.93652-54.95557,0-93.77734-19.15918-121.00293-45.37598Z"/><path d="M712.87207,793.79688c0-109.40723,50.92188-164.36328,126.04492-164.36328s126.0459,54.95605,126.0459,164.36328-50.92285,167.3877-126.0459,167.3877-126.04492-57.98047-126.04492-167.3877Zm175.45508,0c0-79.66113-22.68848-97.81152-49.41016-97.81152s-49.40918,18.15039-49.40918,97.81152,22.6875,100.83594,49.40918,100.83594,49.41016-21.17578,49.41016-100.83594Zm-89.74414,0c0-24.20117,17.1416-40.33496,40.33398-40.33496s40.33496,16.13379,40.33496,40.33496-17.14258,40.33398-40.33496,40.33398-40.33398-16.13379-40.33398-40.33398Z"/></g></svg>